<?xml version="1.0" encoding="utf-8" standalone="no"?>
<!DOCTYPE svg PUBLIC "-//W3C//DTD SVG 1.1//EN"
  "http://www.w3.org/Graphics/SVG/1.1/DTD/svg11.dtd">
<!-- Created with matplotlib (https://matplotlib.org/) -->
<svg height="288pt" version="1.1" viewBox="0 0 864 288" width="864pt" xmlns="http://www.w3.org/2000/svg" xmlns:xlink="http://www.w3.org/1999/xlink">
 <defs>
  <style type="text/css">
*{stroke-linecap:butt;stroke-linejoin:round;}
  </style>
 </defs>
 <g id="figure_1">
  <g id="patch_1">
   <path d="M 0 288 
L 864 288 
L 864 0 
L 0 0 
z
" style="fill:#ffffff;"/>
  </g>
  <g id="axes_1">
   <g id="patch_2">
    <path d="M 108 252 
L 777.6 252 
L 777.6 34.56 
L 108 34.56 
z
" style="fill:#ffffff;"/>
   </g>
   <g id="matplotlib.axis_1">
    <g id="ytick_1">
     <g id="line2d_1">
      <defs>
       <path d="M 0 0 
L -3.5 0 
" id="mfb2cbbb7ac" style="stroke:#000000;stroke-width:0.8;"/>
      </defs>
      <g>
       <use style="stroke:#000000;stroke-width:0.8;" x="108" xlink:href="#mfb2cbbb7ac" y="243.898268"/>
      </g>
     </g>
     <g id="text_1">
      <!-- −20 -->
      <defs>
       <path d="M 10.59375 35.5 
L 73.1875 35.5 
L 73.1875 27.203125 
L 10.59375 27.203125 
z
" id="DejaVuSans-8722"/>
       <path d="M 19.1875 8.296875 
L 53.609375 8.296875 
L 53.609375 0 
L 7.328125 0 
L 7.328125 8.296875 
Q 12.9375 14.109375 22.625 23.890625 
Q 32.328125 33.6875 34.8125 36.53125 
Q 39.546875 41.84375 41.421875 45.53125 
Q 43.3125 49.21875 43.3125 52.78125 
Q 43.3125 58.59375 39.234375 62.25 
Q 35.15625 65.921875 28.609375 65.921875 
Q 23.96875 65.921875 18.8125 64.3125 
Q 13.671875 62.703125 7.8125 59.421875 
L 7.8125 69.390625 
Q 13.765625 71.78125 18.9375 73 
Q 24.125 74.21875 28.421875 74.21875 
Q 39.75 74.21875 46.484375 68.546875 
Q 53.21875 62.890625 53.21875 53.421875 
Q 53.21875 48.921875 51.53125 44.890625 
Q 49.859375 40.875 45.40625 35.40625 
Q 44.1875 33.984375 37.640625 27.21875 
Q 31.109375 20.453125 19.1875 8.296875 
z
" id="DejaVuSans-50"/>
       <path d="M 31.78125 66.40625 
Q 24.171875 66.40625 20.328125 58.90625 
Q 16.5 51.421875 16.5 36.375 
Q 16.5 21.390625 20.328125 13.890625 
Q 24.171875 6.390625 31.78125 6.390625 
Q 39.453125 6.390625 43.28125 13.890625 
Q 47.125 21.390625 47.125 36.375 
Q 47.125 51.421875 43.28125 58.90625 
Q 39.453125 66.40625 31.78125 66.40625 
z
M 31.78125 74.21875 
Q 44.046875 74.21875 50.515625 64.515625 
Q 56.984375 54.828125 56.984375 36.375 
Q 56.984375 17.96875 50.515625 8.265625 
Q 44.046875 -1.421875 31.78125 -1.421875 
Q 19.53125 -1.421875 13.0625 8.265625 
Q 6.59375 17.96875 6.59375 36.375 
Q 6.59375 54.828125 13.0625 64.515625 
Q 19.53125 74.21875 31.78125 74.21875 
z
" id="DejaVuSans-48"/>
      </defs>
      <g transform="translate(79.895313 247.697487)scale(0.1 -0.1)">
       <use xlink:href="#DejaVuSans-8722"/>
       <use x="83.789062" xlink:href="#DejaVuSans-50"/>
       <use x="147.412109" xlink:href="#DejaVuSans-48"/>
      </g>
     </g>
    </g>
    <g id="ytick_2">
     <g id="line2d_2">
      <g>
       <use style="stroke:#000000;stroke-width:0.8;" x="108" xlink:href="#mfb2cbbb7ac" y="212.399159"/>
      </g>
     </g>
     <g id="text_2">
      <!-- −15 -->
      <defs>
       <path d="M 12.40625 8.296875 
L 28.515625 8.296875 
L 28.515625 63.921875 
L 10.984375 60.40625 
L 10.984375 69.390625 
L 28.421875 72.90625 
L 38.28125 72.90625 
L 38.28125 8.296875 
L 54.390625 8.296875 
L 54.390625 0 
L 12.40625 0 
z
" id="DejaVuSans-49"/>
       <path d="M 10.796875 72.90625 
L 49.515625 72.90625 
L 49.515625 64.59375 
L 19.828125 64.59375 
L 19.828125 46.734375 
Q 21.96875 47.46875 24.109375 47.828125 
Q 26.265625 48.1875 28.421875 48.1875 
Q 40.625 48.1875 47.75 41.5 
Q 54.890625 34.8125 54.890625 23.390625 
Q 54.890625 11.625 47.5625 5.09375 
Q 40.234375 -1.421875 26.90625 -1.421875 
Q 22.3125 -1.421875 17.546875 -0.640625 
Q 12.796875 0.140625 7.71875 1.703125 
L 7.71875 11.625 
Q 12.109375 9.234375 16.796875 8.0625 
Q 21.484375 6.890625 26.703125 6.890625 
Q 35.15625 6.890625 40.078125 11.328125 
Q 45.015625 15.765625 45.015625 23.390625 
Q 45.015625 31 40.078125 35.4375 
Q 35.15625 39.890625 26.703125 39.890625 
Q 22.75 39.890625 18.8125 39.015625 
Q 14.890625 38.140625 10.796875 36.28125 
z
" id="DejaVuSans-53"/>
      </defs>
      <g transform="translate(79.895313 216.198378)scale(0.1 -0.1)">
       <use xlink:href="#DejaVuSans-8722"/>
       <use x="83.789062" xlink:href="#DejaVuSans-49"/>
       <use x="147.412109" xlink:href="#DejaVuSans-53"/>
      </g>
     </g>
    </g>
    <g id="ytick_3">
     <g id="line2d_3">
      <g>
       <use style="stroke:#000000;stroke-width:0.8;" x="108" xlink:href="#mfb2cbbb7ac" y="180.90005"/>
      </g>
     </g>
     <g id="text_3">
      <!-- −10 -->
      <g transform="translate(79.895313 184.699269)scale(0.1 -0.1)">
       <use xlink:href="#DejaVuSans-8722"/>
       <use x="83.789062" xlink:href="#DejaVuSans-49"/>
       <use x="147.412109" xlink:href="#DejaVuSans-48"/>
      </g>
     </g>
    </g>
    <g id="ytick_4">
     <g id="line2d_4">
      <g>
       <use style="stroke:#000000;stroke-width:0.8;" x="108" xlink:href="#mfb2cbbb7ac" y="149.400941"/>
      </g>
     </g>
     <g id="text_4">
      <!-- −5 -->
      <g transform="translate(86.257812 153.20016)scale(0.1 -0.1)">
       <use xlink:href="#DejaVuSans-8722"/>
       <use x="83.789062" xlink:href="#DejaVuSans-53"/>
      </g>
     </g>
    </g>
    <g id="ytick_5">
     <g id="line2d_5">
      <g>
       <use style="stroke:#000000;stroke-width:0.8;" x="108" xlink:href="#mfb2cbbb7ac" y="117.901833"/>
      </g>
     </g>
     <g id="text_5">
      <!-- 0 -->
      <g transform="translate(94.6375 121.701051)scale(0.1 -0.1)">
       <use xlink:href="#DejaVuSans-48"/>
      </g>
     </g>
    </g>
    <g id="ytick_6">
     <g id="line2d_6">
      <g>
       <use style="stroke:#000000;stroke-width:0.8;" x="108" xlink:href="#mfb2cbbb7ac" y="86.402724"/>
      </g>
     </g>
     <g id="text_6">
      <!-- 5 -->
      <g transform="translate(94.6375 90.201942)scale(0.1 -0.1)">
       <use xlink:href="#DejaVuSans-53"/>
      </g>
     </g>
    </g>
    <g id="ytick_7">
     <g id="line2d_7">
      <g>
       <use style="stroke:#000000;stroke-width:0.8;" x="108" xlink:href="#mfb2cbbb7ac" y="54.903615"/>
      </g>
     </g>
     <g id="text_7">
      <!-- 10 -->
      <g transform="translate(88.275 58.702834)scale(0.1 -0.1)">
       <use xlink:href="#DejaVuSans-49"/>
       <use x="63.623047" xlink:href="#DejaVuSans-48"/>
      </g>
     </g>
    </g>
   </g>
   <g id="line2d_8">
    <path clip-path="url(#p67a217cc65)" d="M 138.436364 136.610464 
L 143.551236 139.868401 
L 148.666167 135.70548 
L 153.7813 138.737172 
L 158.896919 143.081089 
L 164.017637 139.385744 
L 169.139365 130.984487 
L 174.261599 127.183561 
L 179.383963 129.672263 
L 184.494965 132.764286 
L 189.616301 141.633116 
L 194.70264 181.286444 
L 199.823503 242.116364 
L 204.933243 242.116364 
L 210.053869 163.850441 
L 215.175128 180.125046 
L 220.296659 175.087306 
L 225.418277 169.717741 
L 230.539885 155.78101 
L 235.661435 152.824735 
L 240.737216 153.880549 
L 245.85536 168.842929 
L 250.967355 193.699783 
L 256.084716 223.549126 
L 261.204005 199.250345 
L 266.324218 187.515733 
L 271.444851 197.395129 
L 276.563775 190.683176 
L 281.683688 178.088831 
L 286.804062 170.848975 
L 291.924622 166.399477 
L 297.045232 158.360214 
L 302.165831 156.02234 
L 307.284669 163.910773 
L 312.404303 179.370895 
L 317.524302 192.34231 
L 322.644442 220.638104 
L 327.764615 177.63634 
L 332.884763 178.511158 
L 338.004868 179.26531 
L 343.088247 182.221589 
L 348.186142 171.25622 
L 353.30328 165.222997 
L 358.42073 169.431168 
L 363.539363 174.076745 
L 368.658557 185.35886 
L 373.778009 204.9819 
L 378.897548 207.410274 
L 384.017094 191.648491 
L 389.136623 203.699843 
L 394.256096 192.553473 
L 399.375508 184.453881 
L 404.494854 177.379937 
L 409.612997 171.210969 
L 414.731654 164.046521 
L 419.850537 158.465793 
L 424.909076 154.363207 
L 430.025926 162.930374 
L 435.142682 172.417608 
L 440.259378 214.665218 
L 445.369925 190.15527 
L 450.485401 183.684647 
L 455.601368 181.376941 
L 460.718705 192.372479 
L 465.836877 176.852024 
L 470.955379 170.275817 
L 476.074014 163.639279 
L 481.192687 174.966645 
L 486.311357 189.431282 
L 491.429997 203.669673 
L 496.548591 221.844747 
L 501.667135 184.106968 
L 506.78563 197.259384 
L 511.903494 195.268419 
L 517.0216 186.233675 
L 522.139803 178.073755 
L 527.258029 173.38292 
L 532.376245 167.621202 
L 537.494427 161.090244 
L 542.612572 161.844395 
L 547.641616 172.161202 
L 552.756672 185.373944 
L 557.87156 197.90795 
L 562.987957 186.233675 
L 568.105167 183.669559 
L 573.222766 194.770683 
L 578.340545 181.241192 
L 583.458388 165.388911 
L 588.576247 164.016355 
L 593.694087 170.652893 
L 598.811895 179.627304 
L 603.929673 195.645495 
L 609.047412 215.253451 
L 614.165119 197.289553 
L 619.282805 198.843108 
L 624.399325 198.752605 
L 629.515187 188.571545 
L 634.630722 178.631825 
L 639.746326 175.419136 
L 644.862888 168.179274 
L 649.943412 162.251637 
L 655.057664 156.851907 
L 660.172401 163.518615 
L 665.28737 173.805248 
L 670.403685 209.446483 
L 675.5206 186.746506 
L 680.637793 179.627304 
L 685.755495 183.322653 
L 690.873044 195.374004 
L 695.990501 182.779659 
L 701.107887 172.900266 
L 706.225226 168.842929 
L 711.342525 169.612162 
L 716.460333 175.011897 
L 721.577827 183.186905 
L 726.695143 199.823499 
L 731.812353 214.061896 
L 736.929495 189.959194 
L 742.046585 205.826549 
L 747.163636 194.167362 
" style="fill:none;stroke:#ff0000;stroke-dasharray:5.55,2.4;stroke-dashoffset:0;stroke-width:1.5;"/>
   </g>
   <g id="line2d_9">
    <path clip-path="url(#p67a217cc65)" d="M 138.436364 130.182259 
L 143.551236 133.153619 
L 148.666167 135.88365 
L 153.7813 137.286372 
L 158.896919 135.838399 
L 164.017637 129.699601 
L 169.139365 122.142996 
L 174.261599 117.437086 
L 179.383963 119.443131 
L 184.494965 115.476291 
L 189.616301 113.063004 
L 194.70264 115.17463 
L 199.823503 117.618083 
L 204.933243 148.462907 
L 210.053869 128.327044 
L 215.175128 141.781119 
L 220.296659 141.479458 
L 225.418277 126.411498 
L 230.539885 134.20943 
L 235.661435 142.897264 
L 240.737216 151.660511 
L 245.85536 156.864164 
L 250.967355 146.818857 
L 256.084716 129.096279 
L 261.204005 125.370767 
L 266.324218 131.962058 
L 271.444851 137.859528 
L 276.563775 127.346646 
L 281.683688 122.052498 
L 286.804062 122.535155 
L 291.924622 124.028377 
L 297.045232 125.58193 
L 302.165831 124.405452 
L 307.284669 125.069106 
L 312.404303 125.808176 
L 317.524302 129.066113 
L 322.644442 141.147631 
L 327.764615 131.781061 
L 332.884763 128.085716 
L 338.004868 122.927314 
L 343.088247 129.488438 
L 348.186142 147.422178 
L 353.30328 149.790216 
L 358.42073 151.94709 
L 363.539363 142.746434 
L 368.658557 133.983185 
L 373.778009 134.450761 
L 378.897548 138.281853 
L 384.017094 135.174746 
L 389.136623 139.50358 
L 394.256096 132.474881 
L 399.375508 125.521598 
L 404.494854 124.465784 
L 409.612997 124.993691 
L 414.731654 127.120401 
L 419.850537 125.174688 
L 424.909076 123.047979 
L 430.025926 122.61057 
L 435.142682 125.687511 
L 440.259378 137.527701 
L 445.369925 142.218528 
L 450.485401 133.75694 
L 455.601368 112.580346 
L 460.718705 116.049446 
L 465.836877 143.198926 
L 470.955379 153.907886 
L 476.074014 148.930481 
L 481.192687 141.615206 
L 486.311357 132.188304 
L 491.429997 124.103792 
L 496.548591 133.229034 
L 501.667135 137.663449 
L 506.78563 145.687625 
L 511.903494 141.072217 
L 517.0216 128.945449 
L 522.139803 121.554757 
L 527.258029 123.621134 
L 532.376245 127.422062 
L 537.494427 128.20638 
L 542.612572 130.121926 
L 547.641616 126.833823 
L 552.756672 128.462791 
L 557.87156 136.517137 
L 562.987957 131.886643 
L 568.105167 126.109836 
L 573.222766 117.286256 
L 578.340545 142.399524 
L 583.458388 152.505166 
L 588.576247 151.419184 
L 593.694087 150.710281 
L 598.811895 137.76903 
L 603.929673 132.12797 
L 609.047412 141.494541 
L 614.165119 139.111421 
L 619.282805 134.284845 
L 624.399325 138.839925 
L 629.515187 132.897207 
L 634.630722 126.305916 
L 639.746326 126.501996 
L 644.862888 126.909238 
L 649.943412 127.527643 
L 655.057664 127.482394 
L 660.172401 128.402459 
L 665.28737 127.331563 
L 670.403685 131.675479 
L 675.5206 137.286372 
L 680.637793 132.580461 
L 685.755495 131.509567 
L 690.873044 104.676831 
L 695.990501 126.245584 
L 701.107887 149.051148 
L 706.225226 156.653 
L 711.342525 145.808292 
L 716.460333 130.891161 
L 721.577827 130.272757 
L 726.695143 134.345179 
L 731.812353 139.669493 
L 736.929495 136.969628 
L 742.046585 141.901783 
L 747.163636 132.686043 
" style="fill:none;stroke:#0000ff;stroke-dasharray:5.55,2.4;stroke-dashoffset:0;stroke-width:1.5;"/>
   </g>
   <g id="line2d_10">
    <path clip-path="url(#p67a217cc65)" d="M 138.436364 50.326019 
L 143.551236 44.443636 
L 148.666167 56.208409 
L 153.7813 55.36376 
L 158.896919 59.436185 
L 164.017637 66.057638 
L 169.139365 77.068263 
L 174.261599 84.474036 
L 179.383963 84.760614 
L 184.494965 93.388116 
L 189.616301 102.845184 
L 194.70264 100.733557 
L 199.823503 108.440993 
L 204.933243 99.029173 
L 210.053869 80.77869 
L 215.175128 114.247965 
L 220.296659 124.248023 
L 225.418277 114.247965 
L 230.539885 103.689834 
L 235.661435 110.130294 
L 240.737216 107.656675 
L 245.85536 93.840607 
L 250.967355 97.551035 
L 256.084716 88.350377 
L 261.204005 88.968782 
L 266.324218 100.89947 
L 271.444851 102.422858 
L 276.563775 103.554087 
L 281.683688 106.465114 
L 286.804062 107.837671 
L 291.924622 109.436474 
L 297.045232 107.596343 
L 302.165831 108.652156 
L 307.284669 109.843717 
L 312.404303 112.649162 
L 317.524302 105.062391 
L 322.644442 93.644528 
L 327.764615 93.719943 
L 332.884763 101.683789 
L 338.004868 114.232882 
L 343.088247 112.799993 
L 348.186142 99.119672 
L 353.30328 99.572164 
L 358.42073 97.32479 
L 363.539363 96.600804 
L 368.658557 95.695821 
L 373.778009 98.01861 
L 378.897548 89.481608 
L 384.017094 102.950765 
L 389.136623 104.986976 
L 394.256096 105.952292 
L 399.375508 110.733616 
L 404.494854 113.916138 
L 409.612997 110.477204 
L 414.731654 110.220793 
L 419.850537 110.824114 
L 424.909076 110.929696 
L 430.025926 111.910093 
L 435.142682 109.451557 
L 440.259378 105.092557 
L 445.369925 87.852638 
L 450.485401 95.288579 
L 455.601368 109.285644 
L 460.718705 115.9071 
L 465.836877 93.222203 
L 470.955379 89.994431 
L 476.074014 92.060807 
L 481.192687 90.220676 
L 486.311357 92.528383 
L 491.429997 99.94924 
L 496.548591 96.012564 
L 501.667135 102.950765 
L 506.78563 107.717007 
L 511.903494 108.938733 
L 517.0216 115.122782 
L 522.139803 117.49082 
L 527.258029 117.475737 
L 532.376245 119.72311 
L 537.494427 119.315868 
L 542.612572 118.154474 
L 547.641616 117.430487 
L 552.756672 112.709495 
L 557.87156 95.756153 
L 562.987957 84.836029 
L 568.105167 102.000533 
L 573.222766 100.688308 
L 578.340545 97.535951 
L 583.458388 108.546575 
L 588.576247 106.570695 
L 593.694087 101.472627 
L 598.811895 95.560073 
L 603.929673 95.680738 
L 609.047412 93.50878 
L 614.165119 98.51635 
L 619.282805 108.184581 
L 624.399325 106.04279 
L 629.515187 108.320329 
L 634.630722 113.554145 
L 639.746326 116.872415 
L 644.862888 118.048892 
L 649.943412 118.441051 
L 655.057664 116.435007 
L 660.172401 116.10318 
L 665.28737 114.987034 
L 670.403685 110.658201 
L 675.5206 90.130177 
L 680.637793 87.731973 
L 685.755495 99.783327 
L 690.873044 110.235876 
L 695.990501 96.827049 
L 701.107887 97.294624 
L 706.225226 99.813493 
L 711.342525 97.747115 
L 716.460333 96.7818 
L 721.577827 97.12871 
L 726.695143 100.039738 
L 731.812353 95.725987 
L 736.929495 106.932689 
L 742.046585 107.460595 
L 747.163636 110.00963 
" style="fill:none;stroke:#008000;stroke-dasharray:5.55,2.4;stroke-dashoffset:0;stroke-width:1.5;"/>
   </g>
   <g id="patch_3">
    <path d="M 108 252 
L 108 34.56 
" style="fill:none;stroke:#000000;stroke-linecap:square;stroke-linejoin:miter;stroke-width:0.8;"/>
   </g>
   <g id="patch_4">
    <path d="M 777.6 252 
L 777.6 34.56 
" style="fill:none;stroke:#000000;stroke-linecap:square;stroke-linejoin:miter;stroke-width:0.8;"/>
   </g>
   <g id="patch_5">
    <path d="M 108 252 
L 777.6 252 
" style="fill:none;stroke:#000000;stroke-linecap:square;stroke-linejoin:miter;stroke-width:0.8;"/>
   </g>
   <g id="patch_6">
    <path d="M 108 34.56 
L 777.6 34.56 
" style="fill:none;stroke:#000000;stroke-linecap:square;stroke-linejoin:miter;stroke-width:0.8;"/>
   </g>
   <g id="text_8">
    <!-- Triaxial accelerometer walking data for subject 1601 -->
    <defs>
     <path d="M -0.296875 72.90625 
L 61.375 72.90625 
L 61.375 64.59375 
L 35.5 64.59375 
L 35.5 0 
L 25.59375 0 
L 25.59375 64.59375 
L -0.296875 64.59375 
z
" id="DejaVuSans-84"/>
     <path d="M 41.109375 46.296875 
Q 39.59375 47.171875 37.8125 47.578125 
Q 36.03125 48 33.890625 48 
Q 26.265625 48 22.1875 43.046875 
Q 18.109375 38.09375 18.109375 28.8125 
L 18.109375 0 
L 9.078125 0 
L 9.078125 54.6875 
L 18.109375 54.6875 
L 18.109375 46.1875 
Q 20.953125 51.171875 25.484375 53.578125 
Q 30.03125 56 36.53125 56 
Q 37.453125 56 38.578125 55.875 
Q 39.703125 55.765625 41.0625 55.515625 
z
" id="DejaVuSans-114"/>
     <path d="M 9.421875 54.6875 
L 18.40625 54.6875 
L 18.40625 0 
L 9.421875 0 
z
M 9.421875 75.984375 
L 18.40625 75.984375 
L 18.40625 64.59375 
L 9.421875 64.59375 
z
" id="DejaVuSans-105"/>
     <path d="M 34.28125 27.484375 
Q 23.390625 27.484375 19.1875 25 
Q 14.984375 22.515625 14.984375 16.5 
Q 14.984375 11.71875 18.140625 8.90625 
Q 21.296875 6.109375 26.703125 6.109375 
Q 34.1875 6.109375 38.703125 11.40625 
Q 43.21875 16.703125 43.21875 25.484375 
L 43.21875 27.484375 
z
M 52.203125 31.203125 
L 52.203125 0 
L 43.21875 0 
L 43.21875 8.296875 
Q 40.140625 3.328125 35.546875 0.953125 
Q 30.953125 -1.421875 24.3125 -1.421875 
Q 15.921875 -1.421875 10.953125 3.296875 
Q 6 8.015625 6 15.921875 
Q 6 25.140625 12.171875 29.828125 
Q 18.359375 34.515625 30.609375 34.515625 
L 43.21875 34.515625 
L 43.21875 35.40625 
Q 43.21875 41.609375 39.140625 45 
Q 35.0625 48.390625 27.6875 48.390625 
Q 23 48.390625 18.546875 47.265625 
Q 14.109375 46.140625 10.015625 43.890625 
L 10.015625 52.203125 
Q 14.9375 54.109375 19.578125 55.046875 
Q 24.21875 56 28.609375 56 
Q 40.484375 56 46.34375 49.84375 
Q 52.203125 43.703125 52.203125 31.203125 
z
" id="DejaVuSans-97"/>
     <path d="M 54.890625 54.6875 
L 35.109375 28.078125 
L 55.90625 0 
L 45.3125 0 
L 29.390625 21.484375 
L 13.484375 0 
L 2.875 0 
L 24.125 28.609375 
L 4.6875 54.6875 
L 15.28125 54.6875 
L 29.78125 35.203125 
L 44.28125 54.6875 
z
" id="DejaVuSans-120"/>
     <path d="M 9.421875 75.984375 
L 18.40625 75.984375 
L 18.40625 0 
L 9.421875 0 
z
" id="DejaVuSans-108"/>
     <path id="DejaVuSans-32"/>
     <path d="M 48.78125 52.59375 
L 48.78125 44.1875 
Q 44.96875 46.296875 41.140625 47.34375 
Q 37.3125 48.390625 33.40625 48.390625 
Q 24.65625 48.390625 19.8125 42.84375 
Q 14.984375 37.3125 14.984375 27.296875 
Q 14.984375 17.28125 19.8125 11.734375 
Q 24.65625 6.203125 33.40625 6.203125 
Q 37.3125 6.203125 41.140625 7.25 
Q 44.96875 8.296875 48.78125 10.40625 
L 48.78125 2.09375 
Q 45.015625 0.34375 40.984375 -0.53125 
Q 36.96875 -1.421875 32.421875 -1.421875 
Q 20.0625 -1.421875 12.78125 6.34375 
Q 5.515625 14.109375 5.515625 27.296875 
Q 5.515625 40.671875 12.859375 48.328125 
Q 20.21875 56 33.015625 56 
Q 37.15625 56 41.109375 55.140625 
Q 45.0625 54.296875 48.78125 52.59375 
z
" id="DejaVuSans-99"/>
     <path d="M 56.203125 29.59375 
L 56.203125 25.203125 
L 14.890625 25.203125 
Q 15.484375 15.921875 20.484375 11.0625 
Q 25.484375 6.203125 34.421875 6.203125 
Q 39.59375 6.203125 44.453125 7.46875 
Q 49.3125 8.734375 54.109375 11.28125 
L 54.109375 2.78125 
Q 49.265625 0.734375 44.1875 -0.34375 
Q 39.109375 -1.421875 33.890625 -1.421875 
Q 20.796875 -1.421875 13.15625 6.1875 
Q 5.515625 13.8125 5.515625 26.8125 
Q 5.515625 40.234375 12.765625 48.109375 
Q 20.015625 56 32.328125 56 
Q 43.359375 56 49.78125 48.890625 
Q 56.203125 41.796875 56.203125 29.59375 
z
M 47.21875 32.234375 
Q 47.125 39.59375 43.09375 43.984375 
Q 39.0625 48.390625 32.421875 48.390625 
Q 24.90625 48.390625 20.390625 44.140625 
Q 15.875 39.890625 15.1875 32.171875 
z
" id="DejaVuSans-101"/>
     <path d="M 30.609375 48.390625 
Q 23.390625 48.390625 19.1875 42.75 
Q 14.984375 37.109375 14.984375 27.296875 
Q 14.984375 17.484375 19.15625 11.84375 
Q 23.34375 6.203125 30.609375 6.203125 
Q 37.796875 6.203125 41.984375 11.859375 
Q 46.1875 17.53125 46.1875 27.296875 
Q 46.1875 37.015625 41.984375 42.703125 
Q 37.796875 48.390625 30.609375 48.390625 
z
M 30.609375 56 
Q 42.328125 56 49.015625 48.375 
Q 55.71875 40.765625 55.71875 27.296875 
Q 55.71875 13.875 49.015625 6.21875 
Q 42.328125 -1.421875 30.609375 -1.421875 
Q 18.84375 -1.421875 12.171875 6.21875 
Q 5.515625 13.875 5.515625 27.296875 
Q 5.515625 40.765625 12.171875 48.375 
Q 18.84375 56 30.609375 56 
z
" id="DejaVuSans-111"/>
     <path d="M 52 44.1875 
Q 55.375 50.25 60.0625 53.125 
Q 64.75 56 71.09375 56 
Q 79.640625 56 84.28125 50.015625 
Q 88.921875 44.046875 88.921875 33.015625 
L 88.921875 0 
L 79.890625 0 
L 79.890625 32.71875 
Q 79.890625 40.578125 77.09375 44.375 
Q 74.3125 48.1875 68.609375 48.1875 
Q 61.625 48.1875 57.5625 43.546875 
Q 53.515625 38.921875 53.515625 30.90625 
L 53.515625 0 
L 44.484375 0 
L 44.484375 32.71875 
Q 44.484375 40.625 41.703125 44.40625 
Q 38.921875 48.1875 33.109375 48.1875 
Q 26.21875 48.1875 22.15625 43.53125 
Q 18.109375 38.875 18.109375 30.90625 
L 18.109375 0 
L 9.078125 0 
L 9.078125 54.6875 
L 18.109375 54.6875 
L 18.109375 46.1875 
Q 21.1875 51.21875 25.484375 53.609375 
Q 29.78125 56 35.6875 56 
Q 41.65625 56 45.828125 52.96875 
Q 50 49.953125 52 44.1875 
z
" id="DejaVuSans-109"/>
     <path d="M 18.3125 70.21875 
L 18.3125 54.6875 
L 36.8125 54.6875 
L 36.8125 47.703125 
L 18.3125 47.703125 
L 18.3125 18.015625 
Q 18.3125 11.328125 20.140625 9.421875 
Q 21.96875 7.515625 27.59375 7.515625 
L 36.8125 7.515625 
L 36.8125 0 
L 27.59375 0 
Q 17.1875 0 13.234375 3.875 
Q 9.28125 7.765625 9.28125 18.015625 
L 9.28125 47.703125 
L 2.6875 47.703125 
L 2.6875 54.6875 
L 9.28125 54.6875 
L 9.28125 70.21875 
z
" id="DejaVuSans-116"/>
     <path d="M 4.203125 54.6875 
L 13.1875 54.6875 
L 24.421875 12.015625 
L 35.59375 54.6875 
L 46.1875 54.6875 
L 57.421875 12.015625 
L 68.609375 54.6875 
L 77.59375 54.6875 
L 63.28125 0 
L 52.6875 0 
L 40.921875 44.828125 
L 29.109375 0 
L 18.5 0 
z
" id="DejaVuSans-119"/>
     <path d="M 9.078125 75.984375 
L 18.109375 75.984375 
L 18.109375 31.109375 
L 44.921875 54.6875 
L 56.390625 54.6875 
L 27.390625 29.109375 
L 57.625 0 
L 45.90625 0 
L 18.109375 26.703125 
L 18.109375 0 
L 9.078125 0 
z
" id="DejaVuSans-107"/>
     <path d="M 54.890625 33.015625 
L 54.890625 0 
L 45.90625 0 
L 45.90625 32.71875 
Q 45.90625 40.484375 42.875 44.328125 
Q 39.84375 48.1875 33.796875 48.1875 
Q 26.515625 48.1875 22.3125 43.546875 
Q 18.109375 38.921875 18.109375 30.90625 
L 18.109375 0 
L 9.078125 0 
L 9.078125 54.6875 
L 18.109375 54.6875 
L 18.109375 46.1875 
Q 21.34375 51.125 25.703125 53.5625 
Q 30.078125 56 35.796875 56 
Q 45.21875 56 50.046875 50.171875 
Q 54.890625 44.34375 54.890625 33.015625 
z
" id="DejaVuSans-110"/>
     <path d="M 45.40625 27.984375 
Q 45.40625 37.75 41.375 43.109375 
Q 37.359375 48.484375 30.078125 48.484375 
Q 22.859375 48.484375 18.828125 43.109375 
Q 14.796875 37.75 14.796875 27.984375 
Q 14.796875 18.265625 18.828125 12.890625 
Q 22.859375 7.515625 30.078125 7.515625 
Q 37.359375 7.515625 41.375 12.890625 
Q 45.40625 18.265625 45.40625 27.984375 
z
M 54.390625 6.78125 
Q 54.390625 -7.171875 48.1875 -13.984375 
Q 42 -20.796875 29.203125 -20.796875 
Q 24.46875 -20.796875 20.265625 -20.09375 
Q 16.0625 -19.390625 12.109375 -17.921875 
L 12.109375 -9.1875 
Q 16.0625 -11.328125 19.921875 -12.34375 
Q 23.78125 -13.375 27.78125 -13.375 
Q 36.625 -13.375 41.015625 -8.765625 
Q 45.40625 -4.15625 45.40625 5.171875 
L 45.40625 9.625 
Q 42.625 4.78125 38.28125 2.390625 
Q 33.9375 0 27.875 0 
Q 17.828125 0 11.671875 7.65625 
Q 5.515625 15.328125 5.515625 27.984375 
Q 5.515625 40.671875 11.671875 48.328125 
Q 17.828125 56 27.875 56 
Q 33.9375 56 38.28125 53.609375 
Q 42.625 51.21875 45.40625 46.390625 
L 45.40625 54.6875 
L 54.390625 54.6875 
z
" id="DejaVuSans-103"/>
     <path d="M 45.40625 46.390625 
L 45.40625 75.984375 
L 54.390625 75.984375 
L 54.390625 0 
L 45.40625 0 
L 45.40625 8.203125 
Q 42.578125 3.328125 38.25 0.953125 
Q 33.9375 -1.421875 27.875 -1.421875 
Q 17.96875 -1.421875 11.734375 6.484375 
Q 5.515625 14.40625 5.515625 27.296875 
Q 5.515625 40.1875 11.734375 48.09375 
Q 17.96875 56 27.875 56 
Q 33.9375 56 38.25 53.625 
Q 42.578125 51.265625 45.40625 46.390625 
z
M 14.796875 27.296875 
Q 14.796875 17.390625 18.875 11.75 
Q 22.953125 6.109375 30.078125 6.109375 
Q 37.203125 6.109375 41.296875 11.75 
Q 45.40625 17.390625 45.40625 27.296875 
Q 45.40625 37.203125 41.296875 42.84375 
Q 37.203125 48.484375 30.078125 48.484375 
Q 22.953125 48.484375 18.875 42.84375 
Q 14.796875 37.203125 14.796875 27.296875 
z
" id="DejaVuSans-100"/>
     <path d="M 37.109375 75.984375 
L 37.109375 68.5 
L 28.515625 68.5 
Q 23.6875 68.5 21.796875 66.546875 
Q 19.921875 64.59375 19.921875 59.515625 
L 19.921875 54.6875 
L 34.71875 54.6875 
L 34.71875 47.703125 
L 19.921875 47.703125 
L 19.921875 0 
L 10.890625 0 
L 10.890625 47.703125 
L 2.296875 47.703125 
L 2.296875 54.6875 
L 10.890625 54.6875 
L 10.890625 58.5 
Q 10.890625 67.625 15.140625 71.796875 
Q 19.390625 75.984375 28.609375 75.984375 
z
" id="DejaVuSans-102"/>
     <path d="M 44.28125 53.078125 
L 44.28125 44.578125 
Q 40.484375 46.53125 36.375 47.5 
Q 32.28125 48.484375 27.875 48.484375 
Q 21.1875 48.484375 17.84375 46.4375 
Q 14.5 44.390625 14.5 40.28125 
Q 14.5 37.15625 16.890625 35.375 
Q 19.28125 33.59375 26.515625 31.984375 
L 29.59375 31.296875 
Q 39.15625 29.25 43.1875 25.515625 
Q 47.21875 21.78125 47.21875 15.09375 
Q 47.21875 7.46875 41.1875 3.015625 
Q 35.15625 -1.421875 24.609375 -1.421875 
Q 20.21875 -1.421875 15.453125 -0.5625 
Q 10.6875 0.296875 5.421875 2 
L 5.421875 11.28125 
Q 10.40625 8.6875 15.234375 7.390625 
Q 20.0625 6.109375 24.8125 6.109375 
Q 31.15625 6.109375 34.5625 8.28125 
Q 37.984375 10.453125 37.984375 14.40625 
Q 37.984375 18.0625 35.515625 20.015625 
Q 33.0625 21.96875 24.703125 23.78125 
L 21.578125 24.515625 
Q 13.234375 26.265625 9.515625 29.90625 
Q 5.8125 33.546875 5.8125 39.890625 
Q 5.8125 47.609375 11.28125 51.796875 
Q 16.75 56 26.8125 56 
Q 31.78125 56 36.171875 55.265625 
Q 40.578125 54.546875 44.28125 53.078125 
z
" id="DejaVuSans-115"/>
     <path d="M 8.5 21.578125 
L 8.5 54.6875 
L 17.484375 54.6875 
L 17.484375 21.921875 
Q 17.484375 14.15625 20.5 10.265625 
Q 23.53125 6.390625 29.59375 6.390625 
Q 36.859375 6.390625 41.078125 11.03125 
Q 45.3125 15.671875 45.3125 23.6875 
L 45.3125 54.6875 
L 54.296875 54.6875 
L 54.296875 0 
L 45.3125 0 
L 45.3125 8.40625 
Q 42.046875 3.421875 37.71875 1 
Q 33.40625 -1.421875 27.6875 -1.421875 
Q 18.265625 -1.421875 13.375 4.4375 
Q 8.5 10.296875 8.5 21.578125 
z
M 31.109375 56 
z
" id="DejaVuSans-117"/>
     <path d="M 48.6875 27.296875 
Q 48.6875 37.203125 44.609375 42.84375 
Q 40.53125 48.484375 33.40625 48.484375 
Q 26.265625 48.484375 22.1875 42.84375 
Q 18.109375 37.203125 18.109375 27.296875 
Q 18.109375 17.390625 22.1875 11.75 
Q 26.265625 6.109375 33.40625 6.109375 
Q 40.53125 6.109375 44.609375 11.75 
Q 48.6875 17.390625 48.6875 27.296875 
z
M 18.109375 46.390625 
Q 20.953125 51.265625 25.265625 53.625 
Q 29.59375 56 35.59375 56 
Q 45.5625 56 51.78125 48.09375 
Q 58.015625 40.1875 58.015625 27.296875 
Q 58.015625 14.40625 51.78125 6.484375 
Q 45.5625 -1.421875 35.59375 -1.421875 
Q 29.59375 -1.421875 25.265625 0.953125 
Q 20.953125 3.328125 18.109375 8.203125 
L 18.109375 0 
L 9.078125 0 
L 9.078125 75.984375 
L 18.109375 75.984375 
z
" id="DejaVuSans-98"/>
     <path d="M 9.421875 54.6875 
L 18.40625 54.6875 
L 18.40625 -0.984375 
Q 18.40625 -11.421875 14.421875 -16.109375 
Q 10.453125 -20.796875 1.609375 -20.796875 
L -1.8125 -20.796875 
L -1.8125 -13.1875 
L 0.59375 -13.1875 
Q 5.71875 -13.1875 7.5625 -10.8125 
Q 9.421875 -8.453125 9.421875 -0.984375 
z
M 9.421875 75.984375 
L 18.40625 75.984375 
L 18.40625 64.59375 
L 9.421875 64.59375 
z
" id="DejaVuSans-106"/>
     <path d="M 33.015625 40.375 
Q 26.375 40.375 22.484375 35.828125 
Q 18.609375 31.296875 18.609375 23.390625 
Q 18.609375 15.53125 22.484375 10.953125 
Q 26.375 6.390625 33.015625 6.390625 
Q 39.65625 6.390625 43.53125 10.953125 
Q 47.40625 15.53125 47.40625 23.390625 
Q 47.40625 31.296875 43.53125 35.828125 
Q 39.65625 40.375 33.015625 40.375 
z
M 52.59375 71.296875 
L 52.59375 62.3125 
Q 48.875 64.0625 45.09375 64.984375 
Q 41.3125 65.921875 37.59375 65.921875 
Q 27.828125 65.921875 22.671875 59.328125 
Q 17.53125 52.734375 16.796875 39.40625 
Q 19.671875 43.65625 24.015625 45.921875 
Q 28.375 48.1875 33.59375 48.1875 
Q 44.578125 48.1875 50.953125 41.515625 
Q 57.328125 34.859375 57.328125 23.390625 
Q 57.328125 12.15625 50.6875 5.359375 
Q 44.046875 -1.421875 33.015625 -1.421875 
Q 20.359375 -1.421875 13.671875 8.265625 
Q 6.984375 17.96875 6.984375 36.375 
Q 6.984375 53.65625 15.1875 63.9375 
Q 23.390625 74.21875 37.203125 74.21875 
Q 40.921875 74.21875 44.703125 73.484375 
Q 48.484375 72.75 52.59375 71.296875 
z
" id="DejaVuSans-54"/>
    </defs>
    <g transform="translate(284.040938 28.56)scale(0.12 -0.12)">
     <use xlink:href="#DejaVuSans-84"/>
     <use x="60.865234" xlink:href="#DejaVuSans-114"/>
     <use x="101.978516" xlink:href="#DejaVuSans-105"/>
     <use x="129.761719" xlink:href="#DejaVuSans-97"/>
     <use x="191.041016" xlink:href="#DejaVuSans-120"/>
     <use x="250.220703" xlink:href="#DejaVuSans-105"/>
     <use x="278.003906" xlink:href="#DejaVuSans-97"/>
     <use x="339.283203" xlink:href="#DejaVuSans-108"/>
     <use x="367.066406" xlink:href="#DejaVuSans-32"/>
     <use x="398.853516" xlink:href="#DejaVuSans-97"/>
     <use x="460.132812" xlink:href="#DejaVuSans-99"/>
     <use x="515.113281" xlink:href="#DejaVuSans-99"/>
     <use x="570.09375" xlink:href="#DejaVuSans-101"/>
     <use x="631.617188" xlink:href="#DejaVuSans-108"/>
     <use x="659.400391" xlink:href="#DejaVuSans-101"/>
     <use x="720.923828" xlink:href="#DejaVuSans-114"/>
     <use x="762.005859" xlink:href="#DejaVuSans-111"/>
     <use x="823.1875" xlink:href="#DejaVuSans-109"/>
     <use x="920.599609" xlink:href="#DejaVuSans-101"/>
     <use x="982.123047" xlink:href="#DejaVuSans-116"/>
     <use x="1021.332031" xlink:href="#DejaVuSans-101"/>
     <use x="1082.855469" xlink:href="#DejaVuSans-114"/>
     <use x="1123.96875" xlink:href="#DejaVuSans-32"/>
     <use x="1155.755859" xlink:href="#DejaVuSans-119"/>
     <use x="1237.542969" xlink:href="#DejaVuSans-97"/>
     <use x="1298.822266" xlink:href="#DejaVuSans-108"/>
     <use x="1326.605469" xlink:href="#DejaVuSans-107"/>
     <use x="1384.515625" xlink:href="#DejaVuSans-105"/>
     <use x="1412.298828" xlink:href="#DejaVuSans-110"/>
     <use x="1475.677734" xlink:href="#DejaVuSans-103"/>
     <use x="1539.154297" xlink:href="#DejaVuSans-32"/>
     <use x="1570.941406" xlink:href="#DejaVuSans-100"/>
     <use x="1634.417969" xlink:href="#DejaVuSans-97"/>
     <use x="1695.697266" xlink:href="#DejaVuSans-116"/>
     <use x="1734.90625" xlink:href="#DejaVuSans-97"/>
     <use x="1796.185547" xlink:href="#DejaVuSans-32"/>
     <use x="1827.972656" xlink:href="#DejaVuSans-102"/>
     <use x="1863.177734" xlink:href="#DejaVuSans-111"/>
     <use x="1924.359375" xlink:href="#DejaVuSans-114"/>
     <use x="1965.472656" xlink:href="#DejaVuSans-32"/>
     <use x="1997.259766" xlink:href="#DejaVuSans-115"/>
     <use x="2049.359375" xlink:href="#DejaVuSans-117"/>
     <use x="2112.738281" xlink:href="#DejaVuSans-98"/>
     <use x="2176.214844" xlink:href="#DejaVuSans-106"/>
     <use x="2203.998047" xlink:href="#DejaVuSans-101"/>
     <use x="2265.521484" xlink:href="#DejaVuSans-99"/>
     <use x="2320.501953" xlink:href="#DejaVuSans-116"/>
     <use x="2359.710938" xlink:href="#DejaVuSans-32"/>
     <use x="2391.498047" xlink:href="#DejaVuSans-49"/>
     <use x="2455.121094" xlink:href="#DejaVuSans-54"/>
     <use x="2518.744141" xlink:href="#DejaVuSans-48"/>
     <use x="2582.367188" xlink:href="#DejaVuSans-49"/>
    </g>
   </g>
   <g id="legend_1">
    <g id="patch_7">
     <path d="M 709.039062 86.594375 
L 770.6 86.594375 
Q 772.6 86.594375 772.6 84.594375 
L 772.6 41.56 
Q 772.6 39.56 770.6 39.56 
L 709.039062 39.56 
Q 707.039062 39.56 707.039062 41.56 
L 707.039062 84.594375 
Q 707.039062 86.594375 709.039062 86.594375 
z
" style="fill:#ffffff;opacity:0.8;stroke:#cccccc;stroke-linejoin:miter;"/>
    </g>
    <g id="line2d_11">
     <path d="M 711.039062 47.658438 
L 731.039062 47.658438 
" style="fill:none;stroke:#ff0000;stroke-dasharray:5.55,2.4;stroke-dashoffset:0;stroke-width:1.5;"/>
    </g>
    <g id="line2d_12"/>
    <g id="text_9">
     <!-- x-axis -->
     <defs>
      <path d="M 4.890625 31.390625 
L 31.203125 31.390625 
L 31.203125 23.390625 
L 4.890625 23.390625 
z
" id="DejaVuSans-45"/>
     </defs>
     <g transform="translate(739.039062 51.158438)scale(0.1 -0.1)">
      <use xlink:href="#DejaVuSans-120"/>
      <use x="59.179688" xlink:href="#DejaVuSans-45"/>
      <use x="95.263672" xlink:href="#DejaVuSans-97"/>
      <use x="156.542969" xlink:href="#DejaVuSans-120"/>
      <use x="215.722656" xlink:href="#DejaVuSans-105"/>
      <use x="243.505859" xlink:href="#DejaVuSans-115"/>
     </g>
    </g>
    <g id="line2d_13">
     <path d="M 711.039062 62.336563 
L 731.039062 62.336563 
" style="fill:none;stroke:#0000ff;stroke-dasharray:5.55,2.4;stroke-dashoffset:0;stroke-width:1.5;"/>
    </g>
    <g id="line2d_14"/>
    <g id="text_10">
     <!-- y-axis -->
     <defs>
      <path d="M 32.171875 -5.078125 
Q 28.375 -14.84375 24.75 -17.8125 
Q 21.140625 -20.796875 15.09375 -20.796875 
L 7.90625 -20.796875 
L 7.90625 -13.28125 
L 13.1875 -13.28125 
Q 16.890625 -13.28125 18.9375 -11.515625 
Q 21 -9.765625 23.484375 -3.21875 
L 25.09375 0.875 
L 2.984375 54.6875 
L 12.5 54.6875 
L 29.59375 11.921875 
L 46.6875 54.6875 
L 56.203125 54.6875 
z
" id="DejaVuSans-121"/>
     </defs>
     <g transform="translate(739.039062 65.836563)scale(0.1 -0.1)">
      <use xlink:href="#DejaVuSans-121"/>
      <use x="59.164062" xlink:href="#DejaVuSans-45"/>
      <use x="95.248047" xlink:href="#DejaVuSans-97"/>
      <use x="156.527344" xlink:href="#DejaVuSans-120"/>
      <use x="215.707031" xlink:href="#DejaVuSans-105"/>
      <use x="243.490234" xlink:href="#DejaVuSans-115"/>
     </g>
    </g>
    <g id="line2d_15">
     <path d="M 711.039062 77.014688 
L 731.039062 77.014688 
" style="fill:none;stroke:#008000;stroke-dasharray:5.55,2.4;stroke-dashoffset:0;stroke-width:1.5;"/>
    </g>
    <g id="line2d_16"/>
    <g id="text_11">
     <!-- z-axis -->
     <defs>
      <path d="M 5.515625 54.6875 
L 48.1875 54.6875 
L 48.1875 46.484375 
L 14.40625 7.171875 
L 48.1875 7.171875 
L 48.1875 0 
L 4.296875 0 
L 4.296875 8.203125 
L 38.09375 47.515625 
L 5.515625 47.515625 
z
" id="DejaVuSans-122"/>
     </defs>
     <g transform="translate(739.039062 80.514688)scale(0.1 -0.1)">
      <use xlink:href="#DejaVuSans-122"/>
      <use x="52.490234" xlink:href="#DejaVuSans-45"/>
      <use x="88.574219" xlink:href="#DejaVuSans-97"/>
      <use x="149.853516" xlink:href="#DejaVuSans-120"/>
      <use x="209.033203" xlink:href="#DejaVuSans-105"/>
      <use x="236.816406" xlink:href="#DejaVuSans-115"/>
     </g>
    </g>
   </g>
  </g>
 </g>
 <defs>
  <clipPath id="p67a217cc65">
   <rect height="217.44" width="669.6" x="108" y="34.56"/>
  </clipPath>
 </defs>
</svg>
