<svg viewBox="0 0 910.5 400" xmlns="http://www.w3.org/2000/svg"><g><g><g><g><g><line x1="50" y1="378" x2="45" y2="378" style="visibility: inherit;" fill="rgb(0, 0, 0)" stroke="rgb(204, 204, 204)" stroke-width="1px"></line><line x1="50" y1="340.2" x2="45" y2="340.2" style="visibility: inherit;" fill="rgb(0, 0, 0)" stroke="rgb(204, 204, 204)" stroke-width="1px"></line><line x1="50" y1="302.40000000000003" x2="45" y2="302.40000000000003" style="visibility: inherit;" fill="rgb(0, 0, 0)" stroke="rgb(204, 204, 204)" stroke-width="1px"></line><line x1="50" y1="264.59999999999997" x2="45" y2="264.59999999999997" style="visibility: inherit;" fill="rgb(0, 0, 0)" stroke="rgb(204, 204, 204)" stroke-width="1px"></line><line x1="50" y1="226.80000000000004" x2="45" y2="226.80000000000004" style="visibility: inherit;" fill="rgb(0, 0, 0)" stroke="rgb(204, 204, 204)" stroke-width="1px"></line><line x1="50" y1="189" x2="45" y2="189" style="visibility: inherit;" fill="rgb(0, 0, 0)" stroke="rgb(204, 204, 204)" stroke-width="1px"></line><line x1="50" y1="151.19999999999996" x2="45" y2="151.19999999999996" style="visibility: inherit;" fill="rgb(0, 0, 0)" stroke="rgb(204, 204, 204)" stroke-width="1px"></line><line x1="50" y1="113.40000000000003" x2="45" y2="113.40000000000003" style="visibility: inherit;" fill="rgb(0, 0, 0)" stroke="rgb(204, 204, 204)" stroke-width="1px"></line><line x1="50" y1="75.59999999999997" x2="45" y2="75.59999999999997" style="visibility: inherit;" fill="rgb(0, 0, 0)" stroke="rgb(204, 204, 204)" stroke-width="1px"></line><line x1="50" y1="37.80000000000001" x2="45" y2="37.80000000000001" style="visibility: inherit;" fill="rgb(0, 0, 0)" stroke="rgb(204, 204, 204)" stroke-width="1px"></line><line x1="50" y1="0" x2="45" y2="0" style="visibility: inherit;" fill="rgb(0, 0, 0)" stroke="rgb(204, 204, 204)" stroke-width="1px"></line></g><g transform="translate(40, 0)"><text x="0" y="378" dx="0em" dy="0.3em" style="text-anchor: end; visibility: hidden; font-family: &quot;Helvetica Neue&quot;, sans-serif; font-size: 12px; font-weight: 200;" fill="rgb(50, 49, 63)" stroke="none" stroke-width="1px">0.5</text><text x="0" y="340.2" dx="0em" dy="0.3em" style="text-anchor: end; visibility: inherit; font-family: &quot;Helvetica Neue&quot;, sans-serif; font-size: 12px; font-weight: 200;" fill="rgb(50, 49, 63)" stroke="none" stroke-width="1px">0.55</text><text x="0" y="302.40000000000003" dx="0em" dy="0.3em" style="text-anchor: end; visibility: inherit; font-family: &quot;Helvetica Neue&quot;, sans-serif; font-size: 12px; font-weight: 200;" fill="rgb(50, 49, 63)" stroke="none" stroke-width="1px">0.6</text><text x="0" y="264.59999999999997" dx="0em" dy="0.3em" style="text-anchor: end; visibility: inherit; font-family: &quot;Helvetica Neue&quot;, sans-serif; font-size: 12px; font-weight: 200;" fill="rgb(50, 49, 63)" stroke="none" stroke-width="1px">0.65</text><text x="0" y="226.80000000000004" dx="0em" dy="0.3em" style="text-anchor: end; visibility: inherit; font-family: &quot;Helvetica Neue&quot;, sans-serif; font-size: 12px; font-weight: 200;" fill="rgb(50, 49, 63)" stroke="none" stroke-width="1px">0.7</text><text x="0" y="189" dx="0em" dy="0.3em" style="text-anchor: end; visibility: inherit; font-family: &quot;Helvetica Neue&quot;, sans-serif; font-size: 12px; font-weight: 200;" fill="rgb(50, 49, 63)" stroke="none" stroke-width="1px">0.75</text><text x="0" y="151.19999999999996" dx="0em" dy="0.3em" style="text-anchor: end; visibility: inherit; font-family: &quot;Helvetica Neue&quot;, sans-serif; font-size: 12px; font-weight: 200;" fill="rgb(50, 49, 63)" stroke="none" stroke-width="1px">0.8</text><text x="0" y="113.40000000000003" dx="0em" dy="0.3em" style="text-anchor: end; visibility: inherit; font-family: &quot;Helvetica Neue&quot;, sans-serif; font-size: 12px; font-weight: 200;" fill="rgb(50, 49, 63)" stroke="none" stroke-width="1px">0.85</text><text x="0" y="75.59999999999997" dx="0em" dy="0.3em" style="text-anchor: end; visibility: inherit; font-family: &quot;Helvetica Neue&quot;, sans-serif; font-size: 12px; font-weight: 200;" fill="rgb(50, 49, 63)" stroke="none" stroke-width="1px">0.9</text><text x="0" y="37.80000000000001" dx="0em" dy="0.3em" style="text-anchor: end; visibility: inherit; font-family: &quot;Helvetica Neue&quot;, sans-serif; font-size: 12px; font-weight: 200;" fill="rgb(50, 49, 63)" stroke="none" stroke-width="1px">0.95</text><text x="0" y="0" dx="0em" dy="0.3em" style="text-anchor: end; visibility: hidden; font-family: &quot;Helvetica Neue&quot;, sans-serif; font-size: 12px; font-weight: 200;" fill="rgb(50, 49, 63)" stroke="none" stroke-width="1px">1</text></g><line x1="50" y1="0" x2="50" y2="378" fill="rgb(0, 0, 0)" stroke="rgb(204, 204, 204)" stroke-width="1px"></line></g></g><g transform="translate(50, 0)" clip-path="url(#clip_0)"><clipPath id="clip_0"><rect width="860" height="378"></rect></clipPath><g><g><g><line x1="0" y1="0" x2="0" y2="378" fill="rgb(0, 0, 0)" stroke="rgb(60, 60, 60)" stroke-width="1px" opacity="0.25"></line><line x1="71.70833333333333" y1="0" x2="71.70833333333333" y2="378" fill="rgb(0, 0, 0)" stroke="rgb(60, 60, 60)" stroke-width="1px" opacity="0.25"></line><line x1="143.41666666666666" y1="0" x2="143.41666666666666" y2="378" fill="rgb(0, 0, 0)" stroke="rgb(60, 60, 60)" stroke-width="1px" opacity="0.25"></line><line x1="215.125" y1="0" x2="215.125" y2="378" fill="rgb(0, 0, 0)" stroke="rgb(60, 60, 60)" stroke-width="1px" opacity="0.25"></line><line x1="286.8333333333333" y1="0" x2="286.8333333333333" y2="378" fill="rgb(0, 0, 0)" stroke="rgb(60, 60, 60)" stroke-width="1px" opacity="0.25"></line><line x1="358.5416666666667" y1="0" x2="358.5416666666667" y2="378" fill="rgb(0, 0, 0)" stroke="rgb(60, 60, 60)" stroke-width="1px" opacity="0.25"></line><line x1="430.25" y1="0" x2="430.25" y2="378" fill="rgb(0, 0, 0)" stroke="rgb(60, 60, 60)" stroke-width="1px" opacity="0.25"></line><line x1="501.95833333333337" y1="0" x2="501.95833333333337" y2="378" fill="rgb(0, 0, 0)" stroke="rgb(60, 60, 60)" stroke-width="1px" opacity="0.25"></line><line x1="573.6666666666666" y1="0" x2="573.6666666666666" y2="378" fill="rgb(0, 0, 0)" stroke="rgb(60, 60, 60)" stroke-width="1px" opacity="0.25"></line><line x1="645.375" y1="0" x2="645.375" y2="378" fill="rgb(0, 0, 0)" stroke="rgb(60, 60, 60)" stroke-width="1px" opacity="0.25"></line><line x1="717.0833333333334" y1="0" x2="717.0833333333334" y2="378" fill="rgb(0, 0, 0)" stroke="rgb(60, 60, 60)" stroke-width="1px" opacity="0.25"></line><line x1="788.7916666666666" y1="0" x2="788.7916666666666" y2="378" fill="rgb(0, 0, 0)" stroke="rgb(60, 60, 60)" stroke-width="1px" opacity="0.25"></line><line x1="860.5" y1="0" x2="860.5" y2="378" fill="rgb(0, 0, 0)" stroke="rgb(60, 60, 60)" stroke-width="1px" opacity="0.25"></line></g><g><line x1="0" y1="378" x2="860.5" y2="378" fill="rgb(0, 0, 0)" stroke="rgb(60, 60, 60)" stroke-width="1px" opacity="0.25"></line><line x1="0" y1="340.2" x2="860.5" y2="340.2" fill="rgb(0, 0, 0)" stroke="rgb(60, 60, 60)" stroke-width="1px" opacity="0.25"></line><line x1="0" y1="302.40000000000003" x2="860.5" y2="302.40000000000003" fill="rgb(0, 0, 0)" stroke="rgb(60, 60, 60)" stroke-width="1px" opacity="0.25"></line><line x1="0" y1="264.59999999999997" x2="860.5" y2="264.59999999999997" fill="rgb(0, 0, 0)" stroke="rgb(60, 60, 60)" stroke-width="1px" opacity="0.25"></line><line x1="0" y1="226.80000000000004" x2="860.5" y2="226.80000000000004" fill="rgb(0, 0, 0)" stroke="rgb(60, 60, 60)" stroke-width="1px" opacity="0.25"></line><line x1="0" y1="189" x2="860.5" y2="189" fill="rgb(0, 0, 0)" stroke="rgb(60, 60, 60)" stroke-width="1px" opacity="0.25"></line><line x1="0" y1="151.19999999999996" x2="860.5" y2="151.19999999999996" fill="rgb(0, 0, 0)" stroke="rgb(60, 60, 60)" stroke-width="1px" opacity="0.25"></line><line x1="0" y1="113.40000000000003" x2="860.5" y2="113.40000000000003" fill="rgb(0, 0, 0)" stroke="rgb(60, 60, 60)" stroke-width="1px" opacity="0.25"></line><line x1="0" y1="75.59999999999997" x2="860.5" y2="75.59999999999997" fill="rgb(0, 0, 0)" stroke="rgb(60, 60, 60)" stroke-width="1px" opacity="0.25"></line><line x1="0" y1="37.80000000000001" x2="860.5" y2="37.80000000000001" fill="rgb(0, 0, 0)" stroke="rgb(60, 60, 60)" stroke-width="1px" opacity="0.25"></line><line x1="0" y1="0" x2="860.5" y2="0" fill="rgb(0, 0, 0)" stroke="rgb(60, 60, 60)" stroke-width="1px" opacity="0.25"></line></g></g></g><g><g><line x1="0" y1="756" x2="860.5" y2="756" fill="rgb(0, 0, 0)" stroke="rgb(153, 153, 153)" stroke-width="1.5px"></line></g></g><g><g><line x1="71.70833333333333" y1="0" x2="71.70833333333333" y2="378" fill="rgb(0, 0, 0)" stroke="rgb(153, 153, 153)" stroke-width="1.5px"></line></g></g><g><g><g><g><g><path stroke="rgb(0, 119, 187)" stroke-width="2px" d="M71.70833333333333,382.9868005514145L86.05000000000001,341.43007765710354L100.39166666666667,337.18959285531724L114.73333333333333,301.70674270259985L129.075,255.6346179973244L143.41666666666666,211.4258121728225L157.75833333333333,192.00470259152308L172.10000000000002,181.5174460655739L186.44166666666666,177.7570054761682L200.78333333333333,164.55432357547346L215.125,153.4808193034042L229.46666666666667,144.46358023180358L243.80833333333334,133.20697813019513L258.15,128.85797497751278L272.4916666666667,120.13074173025382L286.8333333333333,111.70455769945306L301.17499999999995,111.97053535903564L315.51666666666665,104.15038381269267L329.85833333333335,100.78870774880733L344.20000000000005,100.89960657257342L358.5416666666667,95.11482959002143L372.8833333333333,91.91001682278932L387.225,92.11486852297287L401.56666666666666,90.11007286536557L415.90833333333336,87.31142083718646L430.25,84.56837610534433L444.5916666666667,85.05026802348368L458.93333333333334,85.87132256936314L473.27500000000003,85.03414701199421L487.6166666666667,84.26587311196676L501.95833333333337,85.40068526877457L516.3,85.28368431479481L530.6416666666667,86.54329128409637L544.9833333333333,86.23521662869655L559.325,84.18862692842481L573.6666666666666,83.49259252026758L588.0083333333333,82.54305249267327L602.3499999999999,82.50524786585532L616.6916666666667,81.41870829503438L631.0333333333333,82.89449814183513L645.375,82.9820839597869L659.7166666666667,82.50269804180965L674.0583333333333,83.01297260407227L688.4000000000001,82.52123122852635L702.7416666666667,82.75812381175598L717.0833333333334,82.10237127340184L731.425,82.77277654290538L745.7666666666667,83.1750197045913L760.1083333333333,83.15039689736994L774.45,83.66754259704425L788.7916666666666,83.71187933706597" style="fill: none;" fill="none"></path></g><g><path stroke="rgb(255, 112, 67)" stroke-width="2px" d="M86.05000000000001,380.6419216990471L100.39166666666667,346.9060757160187L114.73333333333333,315.4493818186662L129.075,286.4873299171824L143.41666666666666,257.84719718555755L157.75833333333333,230.5643976074044L172.10000000000002,204.22922078449537L186.44166666666666,185.04116414753994L200.78333333333333,170.5896294846783L215.125,156.2786346133484L229.46666666666667,143.0446559881317L243.80833333333334,133.11001491361452L258.15,124.31752886229805L272.4916666666667,116.41436350911766L286.8333333333333,109.54591616638874L301.17499999999995,103.44522681186629L315.51666666666665,99.13508614391486L329.85833333333335,95.27812062110559L344.20000000000005,91.66340025456867L358.5416666666667,90.23367105843477L372.8833333333333,87.98651113891901L387.225,85.75142444021623L401.56666666666666,83.67137798831322L415.90833333333336,81.7730326157249L430.25,80.39754773000601L444.5916666666667,79.4540178227615L458.93333333333334,78.14889781485874L473.27500000000003,76.95198492301483L487.6166666666667,76.20427737450865L501.95833333333337,75.34181164874394L516.3,74.73565201211005L530.6416666666667,74.25371589891336L544.9833333333333,73.55071298630816L559.325,73.15847134125545L573.6666666666666,72.42060483846342L588.0083333333333,72.24392574530731L602.3499999999999,72.46307927154538L616.6916666666667,71.44170988441272L631.0333333333333,72.09999011152024L645.375,71.31253665737557L659.7166666666667,71.13566547654847L674.0583333333333,70.46790107482934L688.4000000000001,70.39240341420208L702.7416666666667,69.93326357023267L717.0833333333334,69.15525814895761L731.425,69.72305801515881L745.7666666666667,69.56121641996202L760.1083333333333,69.40499128462284L774.45,69.31125620342061L788.7916666666666,69.1663348873654" style="fill: none;" fill="none"></path></g></g></g></g><g opacity="0.2"><g><g><g><path stroke="rgb(0, 119, 187)" stroke-width="2px" d="M71.70833333333333,382.9868005514145L86.05000000000001,316.49604392051697L100.39166666666667,333.1187274456024L114.73333333333333,259.97891092300415L129.075,195.4828519821167L143.41666666666666,150.26911854743958L157.75833333333333,164.2322051525116L172.10000000000002,166.2269253730774L186.44166666666666,172.21108603477478L200.78333333333333,144.94987964630127L215.125,136.9709987640381L229.46666666666667,130.98679304122925L243.80833333333334,116.3588297367096L258.15,122.34299039840698L272.4916666666667,107.0501503944397L286.8333333333333,99.07122445106506L301.17499999999995,112.369389295578L315.51666666666665,92.4221420288086L329.85833333333335,95.74670577049255L344.20000000000005,101.06594467163086L358.5416666666667,86.4379813671112L372.8833333333333,87.10290312767029L387.225,92.4221420288086L401.56666666666666,87.10290312767029L415.90833333333336,83.1134626865387L430.25,80.45382070541382L444.5916666666667,85.77310466766357L458.93333333333334,87.10290312767029L473.27500000000003,83.77838444709778L487.6166666666667,83.1134626865387L501.95833333333337,87.10290312767029L516.3,85.10818290710449L530.6416666666667,88.432701587677L544.9833333333333,85.77310466766357L559.325,81.1187424659729L573.6666666666666,82.44854092597961L588.0083333333333,81.1187424659729L602.3499999999999,82.44854092597961L616.6916666666667,79.78889894485474L631.0333333333333,85.10818290710449L645.375,83.1134626865387L659.7166666666667,81.78361916542053L674.0583333333333,83.77838444709778L688.4000000000001,81.78361916542053L702.7416666666667,83.1134626865387L717.0833333333334,81.1187424659729L731.425,83.77838444709778L745.7666666666667,83.77838444709778L760.1083333333333,83.1134626865387L774.45,84.44326114654541L788.7916666666666,83.77838444709778" style="fill: none;" fill="none"></path></g><g><path stroke="rgb(255, 112, 67)" stroke-width="2px" d="M71.70833333333333,433.2035114765167L86.05000000000001,349.1049678325653L100.39166666666667,314.5196635723114L114.73333333333333,278.45630979537964L129.075,248.6744749546051L143.41666666666666,218.22758316993713L157.75833333333333,191.54955768585205L172.10000000000002,165.83228015899658L186.44166666666666,156.74250769615173L200.78333333333333,149.13078474998474L215.125,134.94194197654724L229.46666666666667,123.26570677757263L243.80833333333334,118.24049162864685L258.15,111.14602518081665L272.4916666666667,104.56890535354614L286.8333333333333,99.24808931350708L301.17499999999995,94.29677438735962L315.51666666666665,92.67096948623657L329.85833333333335,89.4932599067688L344.20000000000005,86.2416501045227L358.5416666666667,88.08915567398071L372.8833333333333,84.61584520339966L387.225,82.39883852005005L401.56666666666666,80.55133295059204L415.90833333333336,78.925528049469L430.25,78.33432626724243L444.5916666666667,78.03872537612915L458.93333333333334,76.19121980667114L473.27500000000003,75.15661668777466L487.6166666666667,75.08271646499634L501.95833333333337,74.04811334609985L516.3,73.82641267776489L530.6416666666667,73.53081178665161L544.9833333333333,72.49620866775513L559.325,72.57010889053345L573.6666666666666,71.313805103302L588.0083333333333,71.97890710830688L602.3499999999999,72.79180955886841L616.6916666666667,69.90965580940247L631.0333333333333,73.08741044998169L645.375,70.13135647773743L659.7166666666667,70.87035870552063L674.0583333333333,69.46625447273254L688.4000000000001,70.27915692329407L702.7416666666667,69.24455380439758L717.0833333333334,67.98825001716614L731.425,70.57475781440735L745.7666666666667,69.3184540271759L760.1083333333333,69.17065358161926L774.45,69.17065358161926L788.7916666666666,68.9489529132843" style="fill: none;" fill="none"></path></g></g></g></g></g></g><g transform="translate(50, 378)" clip-path="url(#clip_1)"><clipPath id="clip_1"><rect width="860" height="22"></rect></clipPath><g><g><line x1="0" y1="0" x2="0" y2="5" style="visibility: inherit;" fill="rgb(0, 0, 0)" stroke="rgb(204, 204, 204)" stroke-width="1px"></line><line x1="71.70833333333333" y1="0" x2="71.70833333333333" y2="5" style="visibility: inherit;" fill="rgb(0, 0, 0)" stroke="rgb(204, 204, 204)" stroke-width="1px"></line><line x1="143.41666666666666" y1="0" x2="143.41666666666666" y2="5" style="visibility: inherit;" fill="rgb(0, 0, 0)" stroke="rgb(204, 204, 204)" stroke-width="1px"></line><line x1="215.125" y1="0" x2="215.125" y2="5" style="visibility: inherit;" fill="rgb(0, 0, 0)" stroke="rgb(204, 204, 204)" stroke-width="1px"></line><line x1="286.8333333333333" y1="0" x2="286.8333333333333" y2="5" style="visibility: inherit;" fill="rgb(0, 0, 0)" stroke="rgb(204, 204, 204)" stroke-width="1px"></line><line x1="358.5416666666667" y1="0" x2="358.5416666666667" y2="5" style="visibility: inherit;" fill="rgb(0, 0, 0)" stroke="rgb(204, 204, 204)" stroke-width="1px"></line><line x1="430.25" y1="0" x2="430.25" y2="5" style="visibility: inherit;" fill="rgb(0, 0, 0)" stroke="rgb(204, 204, 204)" stroke-width="1px"></line><line x1="501.95833333333337" y1="0" x2="501.95833333333337" y2="5" style="visibility: inherit;" fill="rgb(0, 0, 0)" stroke="rgb(204, 204, 204)" stroke-width="1px"></line><line x1="573.6666666666666" y1="0" x2="573.6666666666666" y2="5" style="visibility: inherit;" fill="rgb(0, 0, 0)" stroke="rgb(204, 204, 204)" stroke-width="1px"></line><line x1="645.375" y1="0" x2="645.375" y2="5" style="visibility: inherit;" fill="rgb(0, 0, 0)" stroke="rgb(204, 204, 204)" stroke-width="1px"></line><line x1="717.0833333333334" y1="0" x2="717.0833333333334" y2="5" style="visibility: inherit;" fill="rgb(0, 0, 0)" stroke="rgb(204, 204, 204)" stroke-width="1px"></line><line x1="788.7916666666666" y1="0" x2="788.7916666666666" y2="5" style="visibility: inherit;" fill="rgb(0, 0, 0)" stroke="rgb(204, 204, 204)" stroke-width="1px"></line><line x1="860.5" y1="0" x2="860.5" y2="5" style="visibility: inherit;" fill="rgb(0, 0, 0)" stroke="rgb(204, 204, 204)" stroke-width="1px"></line></g><g transform="translate(0, 8)"><text x="0" y="0" dx="0em" dy="0.95em" style="text-anchor: middle; visibility: hidden; font-family: &quot;Helvetica Neue&quot;, sans-serif; font-size: 12px; font-weight: 200;" fill="rgb(50, 49, 63)" stroke="none" stroke-width="1px">-5</text><text x="71.70833333333333" y="0" dx="0em" dy="0.95em" style="text-anchor: middle; visibility: inherit; font-family: &quot;Helvetica Neue&quot;, sans-serif; font-size: 12px; font-weight: 200;" fill="rgb(50, 49, 63)" stroke="none" stroke-width="1px">0</text><text x="143.41666666666666" y="0" dx="0em" dy="0.95em" style="text-anchor: middle; visibility: inherit; font-family: &quot;Helvetica Neue&quot;, sans-serif; font-size: 12px; font-weight: 200;" fill="rgb(50, 49, 63)" stroke="none" stroke-width="1px">5</text><text x="215.125" y="0" dx="0em" dy="0.95em" style="text-anchor: middle; visibility: inherit; font-family: &quot;Helvetica Neue&quot;, sans-serif; font-size: 12px; font-weight: 200;" fill="rgb(50, 49, 63)" stroke="none" stroke-width="1px">10</text><text x="286.8333333333333" y="0" dx="0em" dy="0.95em" style="text-anchor: middle; visibility: inherit; font-family: &quot;Helvetica Neue&quot;, sans-serif; font-size: 12px; font-weight: 200;" fill="rgb(50, 49, 63)" stroke="none" stroke-width="1px">15</text><text x="358.5416666666667" y="0" dx="0em" dy="0.95em" style="text-anchor: middle; visibility: inherit; font-family: &quot;Helvetica Neue&quot;, sans-serif; font-size: 12px; font-weight: 200;" fill="rgb(50, 49, 63)" stroke="none" stroke-width="1px">20</text><text x="430.25" y="0" dx="0em" dy="0.95em" style="text-anchor: middle; visibility: inherit; font-family: &quot;Helvetica Neue&quot;, sans-serif; font-size: 12px; font-weight: 200;" fill="rgb(50, 49, 63)" stroke="none" stroke-width="1px">25</text><text x="501.95833333333337" y="0" dx="0em" dy="0.95em" style="text-anchor: middle; visibility: inherit; font-family: &quot;Helvetica Neue&quot;, sans-serif; font-size: 12px; font-weight: 200;" fill="rgb(50, 49, 63)" stroke="none" stroke-width="1px">30</text><text x="573.6666666666666" y="0" dx="0em" dy="0.95em" style="text-anchor: middle; visibility: inherit; font-family: &quot;Helvetica Neue&quot;, sans-serif; font-size: 12px; font-weight: 200;" fill="rgb(50, 49, 63)" stroke="none" stroke-width="1px">35</text><text x="645.375" y="0" dx="0em" dy="0.95em" style="text-anchor: middle; visibility: inherit; font-family: &quot;Helvetica Neue&quot;, sans-serif; font-size: 12px; font-weight: 200;" fill="rgb(50, 49, 63)" stroke="none" stroke-width="1px">40</text><text x="717.0833333333334" y="0" dx="0em" dy="0.95em" style="text-anchor: middle; visibility: inherit; font-family: &quot;Helvetica Neue&quot;, sans-serif; font-size: 12px; font-weight: 200;" fill="rgb(50, 49, 63)" stroke="none" stroke-width="1px">45</text><text x="788.7916666666666" y="0" dx="0em" dy="0.95em" style="text-anchor: middle; visibility: inherit; font-family: &quot;Helvetica Neue&quot;, sans-serif; font-size: 12px; font-weight: 200;" fill="rgb(50, 49, 63)" stroke="none" stroke-width="1px">50</text><text x="860.5" y="0" dx="0em" dy="0.95em" style="text-anchor: middle; visibility: hidden; font-family: &quot;Helvetica Neue&quot;, sans-serif; font-size: 12px; font-weight: 200;" fill="rgb(50, 49, 63)" stroke="none" stroke-width="1px">55</text></g><line x1="0" y1="0" x2="860.5" y2="0" fill="rgb(0, 0, 0)" stroke="rgb(204, 204, 204)" stroke-width="1px"></line></g></g></g></g></svg>