<svg viewBox="0 0 910.5 400" xmlns="http://www.w3.org/2000/svg"><g><g><g><g><g><line x1="50" y1="378" x2="45" y2="378" style="visibility: inherit;" fill="rgb(0, 0, 0)" stroke="rgb(204, 204, 204)" stroke-width="1px"></line><line x1="50" y1="346.5" x2="45" y2="346.5" style="visibility: inherit;" fill="rgb(0, 0, 0)" stroke="rgb(204, 204, 204)" stroke-width="1px"></line><line x1="50" y1="315" x2="45" y2="315" style="visibility: inherit;" fill="rgb(0, 0, 0)" stroke="rgb(204, 204, 204)" stroke-width="1px"></line><line x1="50" y1="283.5" x2="45" y2="283.5" style="visibility: inherit;" fill="rgb(0, 0, 0)" stroke="rgb(204, 204, 204)" stroke-width="1px"></line><line x1="50" y1="252" x2="45" y2="252" style="visibility: inherit;" fill="rgb(0, 0, 0)" stroke="rgb(204, 204, 204)" stroke-width="1px"></line><line x1="50" y1="220.5" x2="45" y2="220.5" style="visibility: inherit;" fill="rgb(0, 0, 0)" stroke="rgb(204, 204, 204)" stroke-width="1px"></line><line x1="50" y1="189.00000000000003" x2="45" y2="189.00000000000003" style="visibility: inherit;" fill="rgb(0, 0, 0)" stroke="rgb(204, 204, 204)" stroke-width="1px"></line><line x1="50" y1="157.50000000000003" x2="45" y2="157.50000000000003" style="visibility: inherit;" fill="rgb(0, 0, 0)" stroke="rgb(204, 204, 204)" stroke-width="1px"></line><line x1="50" y1="126.00000000000006" x2="45" y2="126.00000000000006" style="visibility: inherit;" fill="rgb(0, 0, 0)" stroke="rgb(204, 204, 204)" stroke-width="1px"></line><line x1="50" y1="94.50000000000006" x2="45" y2="94.50000000000006" style="visibility: inherit;" fill="rgb(0, 0, 0)" stroke="rgb(204, 204, 204)" stroke-width="1px"></line><line x1="50" y1="63" x2="45" y2="63" style="visibility: inherit;" fill="rgb(0, 0, 0)" stroke="rgb(204, 204, 204)" stroke-width="1px"></line><line x1="50" y1="31.5" x2="45" y2="31.5" style="visibility: inherit;" fill="rgb(0, 0, 0)" stroke="rgb(204, 204, 204)" stroke-width="1px"></line><line x1="50" y1="0" x2="45" y2="0" style="visibility: inherit;" fill="rgb(0, 0, 0)" stroke="rgb(204, 204, 204)" stroke-width="1px"></line></g><g transform="translate(40, 0)"><text x="0" y="378" dx="0em" dy="0.3em" style="text-anchor: end; visibility: hidden; font-family: &quot;Helvetica Neue&quot;, sans-serif; font-size: 12px; font-weight: 200;" fill="rgb(50, 49, 63)" stroke="none" stroke-width="1px">-0.1</text><text x="0" y="346.5" dx="0em" dy="0.3em" style="text-anchor: end; visibility: inherit; font-family: &quot;Helvetica Neue&quot;, sans-serif; font-size: 12px; font-weight: 200;" fill="rgb(50, 49, 63)" stroke="none" stroke-width="1px">0</text><text x="0" y="315" dx="0em" dy="0.3em" style="text-anchor: end; visibility: inherit; font-family: &quot;Helvetica Neue&quot;, sans-serif; font-size: 12px; font-weight: 200;" fill="rgb(50, 49, 63)" stroke="none" stroke-width="1px">0.1</text><text x="0" y="283.5" dx="0em" dy="0.3em" style="text-anchor: end; visibility: inherit; font-family: &quot;Helvetica Neue&quot;, sans-serif; font-size: 12px; font-weight: 200;" fill="rgb(50, 49, 63)" stroke="none" stroke-width="1px">0.2</text><text x="0" y="252" dx="0em" dy="0.3em" style="text-anchor: end; visibility: inherit; font-family: &quot;Helvetica Neue&quot;, sans-serif; font-size: 12px; font-weight: 200;" fill="rgb(50, 49, 63)" stroke="none" stroke-width="1px">0.3</text><text x="0" y="220.5" dx="0em" dy="0.3em" style="text-anchor: end; visibility: inherit; font-family: &quot;Helvetica Neue&quot;, sans-serif; font-size: 12px; font-weight: 200;" fill="rgb(50, 49, 63)" stroke="none" stroke-width="1px">0.4</text><text x="0" y="189.00000000000003" dx="0em" dy="0.3em" style="text-anchor: end; visibility: inherit; font-family: &quot;Helvetica Neue&quot;, sans-serif; font-size: 12px; font-weight: 200;" fill="rgb(50, 49, 63)" stroke="none" stroke-width="1px">0.5</text><text x="0" y="157.50000000000003" dx="0em" dy="0.3em" style="text-anchor: end; visibility: inherit; font-family: &quot;Helvetica Neue&quot;, sans-serif; font-size: 12px; font-weight: 200;" fill="rgb(50, 49, 63)" stroke="none" stroke-width="1px">0.6</text><text x="0" y="126.00000000000006" dx="0em" dy="0.3em" style="text-anchor: end; visibility: inherit; font-family: &quot;Helvetica Neue&quot;, sans-serif; font-size: 12px; font-weight: 200;" fill="rgb(50, 49, 63)" stroke="none" stroke-width="1px">0.7</text><text x="0" y="94.50000000000006" dx="0em" dy="0.3em" style="text-anchor: end; visibility: inherit; font-family: &quot;Helvetica Neue&quot;, sans-serif; font-size: 12px; font-weight: 200;" fill="rgb(50, 49, 63)" stroke="none" stroke-width="1px">0.8</text><text x="0" y="63" dx="0em" dy="0.3em" style="text-anchor: end; visibility: inherit; font-family: &quot;Helvetica Neue&quot;, sans-serif; font-size: 12px; font-weight: 200;" fill="rgb(50, 49, 63)" stroke="none" stroke-width="1px">0.9</text><text x="0" y="31.5" dx="0em" dy="0.3em" style="text-anchor: end; visibility: inherit; font-family: &quot;Helvetica Neue&quot;, sans-serif; font-size: 12px; font-weight: 200;" fill="rgb(50, 49, 63)" stroke="none" stroke-width="1px">1</text><text x="0" y="0" dx="0em" dy="0.3em" style="text-anchor: end; visibility: hidden; font-family: &quot;Helvetica Neue&quot;, sans-serif; font-size: 12px; font-weight: 200;" fill="rgb(50, 49, 63)" stroke="none" stroke-width="1px">1.1</text></g><line x1="50" y1="0" x2="50" y2="378" fill="rgb(0, 0, 0)" stroke="rgb(204, 204, 204)" stroke-width="1px"></line></g></g><g transform="translate(50, 0)" clip-path="url(#clip_0)"><clipPath id="clip_0"><rect width="860" height="378"></rect></clipPath><g><g><g><line x1="0" y1="0" x2="0" y2="378" fill="rgb(0, 0, 0)" stroke="rgb(60, 60, 60)" stroke-width="1px" opacity="0.25"></line><line x1="71.70833333333333" y1="0" x2="71.70833333333333" y2="378" fill="rgb(0, 0, 0)" stroke="rgb(60, 60, 60)" stroke-width="1px" opacity="0.25"></line><line x1="143.41666666666666" y1="0" x2="143.41666666666666" y2="378" fill="rgb(0, 0, 0)" stroke="rgb(60, 60, 60)" stroke-width="1px" opacity="0.25"></line><line x1="215.125" y1="0" x2="215.125" y2="378" fill="rgb(0, 0, 0)" stroke="rgb(60, 60, 60)" stroke-width="1px" opacity="0.25"></line><line x1="286.8333333333333" y1="0" x2="286.8333333333333" y2="378" fill="rgb(0, 0, 0)" stroke="rgb(60, 60, 60)" stroke-width="1px" opacity="0.25"></line><line x1="358.5416666666667" y1="0" x2="358.5416666666667" y2="378" fill="rgb(0, 0, 0)" stroke="rgb(60, 60, 60)" stroke-width="1px" opacity="0.25"></line><line x1="430.25" y1="0" x2="430.25" y2="378" fill="rgb(0, 0, 0)" stroke="rgb(60, 60, 60)" stroke-width="1px" opacity="0.25"></line><line x1="501.95833333333337" y1="0" x2="501.95833333333337" y2="378" fill="rgb(0, 0, 0)" stroke="rgb(60, 60, 60)" stroke-width="1px" opacity="0.25"></line><line x1="573.6666666666666" y1="0" x2="573.6666666666666" y2="378" fill="rgb(0, 0, 0)" stroke="rgb(60, 60, 60)" stroke-width="1px" opacity="0.25"></line><line x1="645.375" y1="0" x2="645.375" y2="378" fill="rgb(0, 0, 0)" stroke="rgb(60, 60, 60)" stroke-width="1px" opacity="0.25"></line><line x1="717.0833333333334" y1="0" x2="717.0833333333334" y2="378" fill="rgb(0, 0, 0)" stroke="rgb(60, 60, 60)" stroke-width="1px" opacity="0.25"></line><line x1="788.7916666666666" y1="0" x2="788.7916666666666" y2="378" fill="rgb(0, 0, 0)" stroke="rgb(60, 60, 60)" stroke-width="1px" opacity="0.25"></line><line x1="860.5" y1="0" x2="860.5" y2="378" fill="rgb(0, 0, 0)" stroke="rgb(60, 60, 60)" stroke-width="1px" opacity="0.25"></line></g><g><line x1="0" y1="378" x2="860.5" y2="378" fill="rgb(0, 0, 0)" stroke="rgb(60, 60, 60)" stroke-width="1px" opacity="0.25"></line><line x1="0" y1="346.5" x2="860.5" y2="346.5" fill="rgb(0, 0, 0)" stroke="rgb(60, 60, 60)" stroke-width="1px" opacity="0.25"></line><line x1="0" y1="315" x2="860.5" y2="315" fill="rgb(0, 0, 0)" stroke="rgb(60, 60, 60)" stroke-width="1px" opacity="0.25"></line><line x1="0" y1="283.5" x2="860.5" y2="283.5" fill="rgb(0, 0, 0)" stroke="rgb(60, 60, 60)" stroke-width="1px" opacity="0.25"></line><line x1="0" y1="252" x2="860.5" y2="252" fill="rgb(0, 0, 0)" stroke="rgb(60, 60, 60)" stroke-width="1px" opacity="0.25"></line><line x1="0" y1="220.5" x2="860.5" y2="220.5" fill="rgb(0, 0, 0)" stroke="rgb(60, 60, 60)" stroke-width="1px" opacity="0.25"></line><line x1="0" y1="189.00000000000003" x2="860.5" y2="189.00000000000003" fill="rgb(0, 0, 0)" stroke="rgb(60, 60, 60)" stroke-width="1px" opacity="0.25"></line><line x1="0" y1="157.50000000000003" x2="860.5" y2="157.50000000000003" fill="rgb(0, 0, 0)" stroke="rgb(60, 60, 60)" stroke-width="1px" opacity="0.25"></line><line x1="0" y1="126.00000000000006" x2="860.5" y2="126.00000000000006" fill="rgb(0, 0, 0)" stroke="rgb(60, 60, 60)" stroke-width="1px" opacity="0.25"></line><line x1="0" y1="94.50000000000006" x2="860.5" y2="94.50000000000006" fill="rgb(0, 0, 0)" stroke="rgb(60, 60, 60)" stroke-width="1px" opacity="0.25"></line><line x1="0" y1="63" x2="860.5" y2="63" fill="rgb(0, 0, 0)" stroke="rgb(60, 60, 60)" stroke-width="1px" opacity="0.25"></line><line x1="0" y1="31.5" x2="860.5" y2="31.5" fill="rgb(0, 0, 0)" stroke="rgb(60, 60, 60)" stroke-width="1px" opacity="0.25"></line><line x1="0" y1="0" x2="860.5" y2="0" fill="rgb(0, 0, 0)" stroke="rgb(60, 60, 60)" stroke-width="1px" opacity="0.25"></line></g></g></g><g><g><line x1="0" y1="346.5" x2="860.5" y2="346.5" fill="rgb(0, 0, 0)" stroke="rgb(153, 153, 153)" stroke-width="1.5px"></line></g></g><g><g><line x1="71.70833333333333" y1="0" x2="71.70833333333333" y2="378" fill="rgb(0, 0, 0)" stroke="rgb(153, 153, 153)" stroke-width="1.5px"></line></g></g><g><g><g><g><g><path stroke="rgb(0, 119, 187)" stroke-width="2px" d="M71.70833333333333,0.1267644166946411L86.05000000000001,26.590803131461143L100.39166666666667,39.96902706793384L114.73333333333333,66.788655473029L129.075,99.18185715142596L143.41666666666666,125.24490760518873L157.75833333333333,147.43157311857746L172.10000000000002,157.93838295132025L186.44166666666666,169.80017889287387L200.78333333333333,180.15841699727136L215.125,191.4688185632324L229.46666666666667,195.43039987719524L243.80833333333334,204.89696395093478L258.15,207.74996650943217L272.4916666666667,212.66557968685294L286.8333333333333,222.42623047974968L301.17499999999995,223.88389949891518L315.51666666666665,233.2504612035375L329.85833333333335,237.21957344968024L344.20000000000005,239.39036030054183L358.5416666666667,243.37876441145448L372.8833333333333,245.53644617054516L387.225,247.2813100070152L401.56666666666666,248.37399053067267L415.90833333333336,250.935239107355L430.25,252.90964038458878L444.5916666666667,253.43943898833288L458.93333333333334,252.13933001165975L473.27500000000003,253.85242976012017L487.6166666666667,254.41926511696659L501.95833333333337,253.12077879712064L516.3,253.95627568340888L530.6416666666667,255.96665920187638L544.9833333333333,255.6748137829706L559.325,256.3725440358662L573.6666666666666,256.9444200011793L588.0083333333333,258.1770782077723L602.3499999999999,258.2019813660362L616.6916666666667,258.13989504583225L631.0333333333333,258.70144909938267L645.375,259.37686182505473L659.7166666666667,259.2844545450158L674.0583333333333,258.9761046889337L688.4000000000001,259.33900409483715L702.7416666666667,259.61964153974475L717.0833333333334,259.90063172419167L731.425,259.3445943464983L745.7666666666667,259.37185509623043L760.1083333333333,259.1843400574954L774.45,259.14936618669196L788.7916666666666,259.2467386285272" style="fill: none;" fill="none"></path></g><g><path stroke="rgb(255, 112, 67)" stroke-width="2px" d="M86.05000000000001,-17.891066506505013L100.39166666666667,15.958428025245667L114.73333333333333,47.72443830923123L129.075,72.84022073932692L143.41666666666666,96.63958998724712L157.75833333333333,121.57591488090947L172.10000000000002,145.4523703792195L186.44166666666666,163.4715301800515L200.78333333333333,176.91155321897375L215.125,187.63638450451884L229.46666666666667,197.87733172926556L243.80833333333334,207.1141742929881L258.15,214.0517213971663L272.4916666666667,221.2232511336145L286.8333333333333,227.18410942897592L301.17499999999995,232.52623508463267L315.51666666666665,236.83225075008676L329.85833333333335,240.82789656238373L344.20000000000005,244.38746575815065L358.5416666666667,246.79756719149958L372.8833333333333,249.07569989535025L387.225,251.2777145417125L401.56666666666666,253.32039282906499L415.90833333333336,255.21739856615244L430.25,256.72222013996503L444.5916666666667,258.300281540754L458.93333333333334,259.47441324346414L473.27500000000003,260.537968912713L487.6166666666667,261.4362324071876L501.95833333333337,262.66302204865536L516.3,263.4555310208811L530.6416666666667,264.08158554439393L544.9833333333333,264.66477723484024L559.325,265.4146696908925L573.6666666666666,265.931986538957L588.0083333333333,266.6548210000369L602.3499999999999,267.1335827854394L616.6916666666667,267.39494473677206L631.0333333333333,267.6237376451054L645.375,268.16588747661433L659.7166666666667,268.6898405504431L674.0583333333333,269.173137113723L688.4000000000001,269.65181784356355L702.7416666666667,269.6905724556768L717.0833333333334,270.1815013558887L731.425,269.74064445918475L745.7666666666667,269.99385057346007L760.1083333333333,270.3855800894312L774.45,270.3391961376313L788.7916666666666,270.3797159624366" style="fill: none;" fill="none"></path></g></g></g></g><g opacity="0.2"><g><g><g><path stroke="rgb(0, 119, 187)" stroke-width="2px" d="M71.70833333333333,0.1267644166946411L86.05000000000001,42.469226360321045L100.39166666666667,52.81212204694748L114.73333333333333,98.32853847742086L129.075,141.47442126274112L143.41666666666666,161.29948908090597L157.75833333333333,179.15885978937152L172.10000000000002,173.2574125528336L186.44166666666666,187.29402387142184L200.78333333333333,195.53919339179996L215.125,208.33183640241626L229.46666666666667,201.35121309757236L243.80833333333334,219.0659000873566L258.15,212.0238810181618L272.4916666666667,220.033221334219L286.8333333333333,237.06032270193103L301.17499999999995,226.06978619098666L315.51666666666665,247.29792559146884L329.85833333333335,243.17263716459277L344.20000000000005,242.6463421583176L358.5416666666667,249.3611518442631L372.8833333333333,248.7728978097439L387.225,249.89857131242755L401.56666666666666,250.01299837231636L415.90833333333336,254.77709376811984L430.25,255.8712338805199L444.5916666666667,254.23413553833964L458.93333333333334,250.18916854262355L473.27500000000003,256.42207780480385L487.6166666666667,255.26951783895493L501.95833333333337,251.1730497479439L516.3,255.20952084660533L530.6416666666667,258.98223423957825L544.9833333333333,255.23704567551613L559.325,257.4191393852234L573.6666666666666,257.80223393440247L588.0083333333333,260.02606549859047L602.3499999999999,258.2393361032009L616.6916666666667,258.0467655658722L631.0333333333333,259.54378017783165L645.375,260.38998091220856L659.7166666666667,259.14584362506866L674.0583333333333,258.5135799050331L688.4000000000001,259.8833532035351L702.7416666666667,260.04059770703316L717.0833333333334,260.32211700081825L731.425,258.5105382800102L745.7666666666667,259.4127462208271L760.1083333333333,258.9030674993992L774.45,259.09690538048744L788.7916666666666,259.39279729127884" style="fill: none;" fill="none"></path></g><g><path stroke="rgb(255, 112, 67)" stroke-width="2px" d="M71.70833333333333,-65.79208409786224L86.05000000000001,10.849544048309383L100.39166666666667,48.45394277572632L114.73333333333333,85.0812664031983L129.075,105.63138628005987L143.41666666666666,129.56268543004992L157.75833333333333,157.23525846004492L172.10000000000002,180.2644717097283L186.44166666666666,190.0462908446789L200.78333333333333,196.8684210777283L215.125,203.62635800242427L229.46666666666667,213.18302178382876L243.80833333333334,220.93927824497226L258.15,224.44445067644122L272.4916666666667,231.9721158742905L286.8333333333333,236.12119281291965L301.17499999999995,240.53716295957568L315.51666666666665,243.29018095135692L329.85833333333335,246.82075658440593L344.20000000000005,249.72649419307712L358.5416666666667,250.41258716583255L372.8833333333333,252.49282398819923L387.225,254.58069303631785L401.56666666666666,256.38438606262207L415.90833333333336,258.06289368867874L430.25,258.97944608330727L444.5916666666667,260.6673696041107L458.93333333333334,261.2356089949608L473.27500000000003,262.1333014369011L487.6166666666667,262.78362715244293L501.95833333333337,264.50320610404015L516.3,264.644294321537L530.6416666666667,265.0206672549248L544.9833333333333,265.5395647287369L559.325,266.5395083427429L573.6666666666666,266.70796179771423L588.0083333333333,267.7390726804733L602.3499999999999,267.8517254590988L616.6916666666667,267.78698766231537L631.0333333333333,267.9669270068407L645.375,268.9791122227907L659.7166666666667,269.47577016055584L674.0583333333333,269.8980819582939L688.4000000000001,270.369838938117L702.7416666666667,269.7487043738365L717.0833333333334,270.91789470613L731.425,269.0793591141701L745.7666666666667,270.37365974485874L760.1083333333333,270.9731743633747L774.45,270.2696202099323L788.7916666666666,270.4404956996441" style="fill: none;" fill="none"></path></g></g></g></g></g><g><g><span fill="rgb(0, 0, 0)" stroke="none" stroke-width="1px">Alt + Scroll to Zoom</span></g></g></g><g transform="translate(50, 378)" clip-path="url(#clip_1)"><clipPath id="clip_1"><rect width="860" height="22"></rect></clipPath><g><g><line x1="0" y1="0" x2="0" y2="5" style="visibility: inherit;" fill="rgb(0, 0, 0)" stroke="rgb(204, 204, 204)" stroke-width="1px"></line><line x1="71.70833333333333" y1="0" x2="71.70833333333333" y2="5" style="visibility: inherit;" fill="rgb(0, 0, 0)" stroke="rgb(204, 204, 204)" stroke-width="1px"></line><line x1="143.41666666666666" y1="0" x2="143.41666666666666" y2="5" style="visibility: inherit;" fill="rgb(0, 0, 0)" stroke="rgb(204, 204, 204)" stroke-width="1px"></line><line x1="215.125" y1="0" x2="215.125" y2="5" style="visibility: inherit;" fill="rgb(0, 0, 0)" stroke="rgb(204, 204, 204)" stroke-width="1px"></line><line x1="286.8333333333333" y1="0" x2="286.8333333333333" y2="5" style="visibility: inherit;" fill="rgb(0, 0, 0)" stroke="rgb(204, 204, 204)" stroke-width="1px"></line><line x1="358.5416666666667" y1="0" x2="358.5416666666667" y2="5" style="visibility: inherit;" fill="rgb(0, 0, 0)" stroke="rgb(204, 204, 204)" stroke-width="1px"></line><line x1="430.25" y1="0" x2="430.25" y2="5" style="visibility: inherit;" fill="rgb(0, 0, 0)" stroke="rgb(204, 204, 204)" stroke-width="1px"></line><line x1="501.95833333333337" y1="0" x2="501.95833333333337" y2="5" style="visibility: inherit;" fill="rgb(0, 0, 0)" stroke="rgb(204, 204, 204)" stroke-width="1px"></line><line x1="573.6666666666666" y1="0" x2="573.6666666666666" y2="5" style="visibility: inherit;" fill="rgb(0, 0, 0)" stroke="rgb(204, 204, 204)" stroke-width="1px"></line><line x1="645.375" y1="0" x2="645.375" y2="5" style="visibility: inherit;" fill="rgb(0, 0, 0)" stroke="rgb(204, 204, 204)" stroke-width="1px"></line><line x1="717.0833333333334" y1="0" x2="717.0833333333334" y2="5" style="visibility: inherit;" fill="rgb(0, 0, 0)" stroke="rgb(204, 204, 204)" stroke-width="1px"></line><line x1="788.7916666666666" y1="0" x2="788.7916666666666" y2="5" style="visibility: inherit;" fill="rgb(0, 0, 0)" stroke="rgb(204, 204, 204)" stroke-width="1px"></line><line x1="860.5" y1="0" x2="860.5" y2="5" style="visibility: inherit;" fill="rgb(0, 0, 0)" stroke="rgb(204, 204, 204)" stroke-width="1px"></line></g><g transform="translate(0, 8)"><text x="0" y="0" dx="0em" dy="0.95em" style="text-anchor: middle; visibility: hidden; font-family: &quot;Helvetica Neue&quot;, sans-serif; font-size: 12px; font-weight: 200;" fill="rgb(50, 49, 63)" stroke="none" stroke-width="1px">-5</text><text x="71.70833333333333" y="0" dx="0em" dy="0.95em" style="text-anchor: middle; visibility: inherit; font-family: &quot;Helvetica Neue&quot;, sans-serif; font-size: 12px; font-weight: 200;" fill="rgb(50, 49, 63)" stroke="none" stroke-width="1px">0</text><text x="143.41666666666666" y="0" dx="0em" dy="0.95em" style="text-anchor: middle; visibility: inherit; font-family: &quot;Helvetica Neue&quot;, sans-serif; font-size: 12px; font-weight: 200;" fill="rgb(50, 49, 63)" stroke="none" stroke-width="1px">5</text><text x="215.125" y="0" dx="0em" dy="0.95em" style="text-anchor: middle; visibility: inherit; font-family: &quot;Helvetica Neue&quot;, sans-serif; font-size: 12px; font-weight: 200;" fill="rgb(50, 49, 63)" stroke="none" stroke-width="1px">10</text><text x="286.8333333333333" y="0" dx="0em" dy="0.95em" style="text-anchor: middle; visibility: inherit; font-family: &quot;Helvetica Neue&quot;, sans-serif; font-size: 12px; font-weight: 200;" fill="rgb(50, 49, 63)" stroke="none" stroke-width="1px">15</text><text x="358.5416666666667" y="0" dx="0em" dy="0.95em" style="text-anchor: middle; visibility: inherit; font-family: &quot;Helvetica Neue&quot;, sans-serif; font-size: 12px; font-weight: 200;" fill="rgb(50, 49, 63)" stroke="none" stroke-width="1px">20</text><text x="430.25" y="0" dx="0em" dy="0.95em" style="text-anchor: middle; visibility: inherit; font-family: &quot;Helvetica Neue&quot;, sans-serif; font-size: 12px; font-weight: 200;" fill="rgb(50, 49, 63)" stroke="none" stroke-width="1px">25</text><text x="501.95833333333337" y="0" dx="0em" dy="0.95em" style="text-anchor: middle; visibility: inherit; font-family: &quot;Helvetica Neue&quot;, sans-serif; font-size: 12px; font-weight: 200;" fill="rgb(50, 49, 63)" stroke="none" stroke-width="1px">30</text><text x="573.6666666666666" y="0" dx="0em" dy="0.95em" style="text-anchor: middle; visibility: inherit; font-family: &quot;Helvetica Neue&quot;, sans-serif; font-size: 12px; font-weight: 200;" fill="rgb(50, 49, 63)" stroke="none" stroke-width="1px">35</text><text x="645.375" y="0" dx="0em" dy="0.95em" style="text-anchor: middle; visibility: inherit; font-family: &quot;Helvetica Neue&quot;, sans-serif; font-size: 12px; font-weight: 200;" fill="rgb(50, 49, 63)" stroke="none" stroke-width="1px">40</text><text x="717.0833333333334" y="0" dx="0em" dy="0.95em" style="text-anchor: middle; visibility: inherit; font-family: &quot;Helvetica Neue&quot;, sans-serif; font-size: 12px; font-weight: 200;" fill="rgb(50, 49, 63)" stroke="none" stroke-width="1px">45</text><text x="788.7916666666666" y="0" dx="0em" dy="0.95em" style="text-anchor: middle; visibility: inherit; font-family: &quot;Helvetica Neue&quot;, sans-serif; font-size: 12px; font-weight: 200;" fill="rgb(50, 49, 63)" stroke="none" stroke-width="1px">50</text><text x="860.5" y="0" dx="0em" dy="0.95em" style="text-anchor: middle; visibility: hidden; font-family: &quot;Helvetica Neue&quot;, sans-serif; font-size: 12px; font-weight: 200;" fill="rgb(50, 49, 63)" stroke="none" stroke-width="1px">55</text></g><line x1="0" y1="0" x2="860.5" y2="0" fill="rgb(0, 0, 0)" stroke="rgb(204, 204, 204)" stroke-width="1px"></line></g></g></g></g></svg>